<svg xmlns="http://www.w3.org/2000/svg" viewBox="0 0 900 470" font-family="Georgia, serif" role="img" aria-label="The standing sentence with its genus clause struck out, and a table comparing the old sentence, the new one, the metrology vocabulary and the FDA software glossary on six features. Only the practice's sentences have someone who holds the norm and exclude a true value; only the old sentence has a genus.">
<rect width="900" height="470" fill="#faf8f3"/>
<text x="40" y="44" font-size="19" fill="#1d1d1b">Error is <tspan fill="#a23b2a" text-decoration="line-through">a special case of the epistemic thing —</tspan></text>
<text x="40" y="74" font-size="19" fill="#1d1d1b">a difference onto which an observer has already imposed a norm.</text>
<text x="40" y="104" font-size="12" fill="#6b6b66">Session 99, 2026-09-28: S93.GENUS survived at its due date and the genus clause was subtracted, decided without Rheinberger 1997.</text>
<text x="375.0" y="160" font-size="12" fill="#1d1d1b" text-anchor="middle">a difference</text>
<text x="465.0" y="160" font-size="12" fill="#1d1d1b" text-anchor="middle">held against</text>
<text x="555.0" y="160" font-size="12" fill="#1d1d1b" text-anchor="middle">someone holds it</text>
<text x="645.0" y="160" font-size="12" fill="#1d1d1b" text-anchor="middle">fixed before</text>
<text x="735.0" y="160" font-size="12" fill="#1d1d1b" text-anchor="middle">no true value</text>
<text x="825.0" y="160" font-size="12" fill="#1d1d1b" text-anchor="middle">a genus</text>
<line x1="40" y1="226.0" x2="870" y2="226.0" stroke="#d9d6cf"/>
<text x="40" y="205" font-size="13" fill="#1d1d1b">Standing sentence, Sessions 26–98</text>
<circle cx="375.0" cy="200" r="9" fill="#1d1d1b"/>
<circle cx="465.0" cy="200" r="9" fill="#1d1d1b"/>
<circle cx="555.0" cy="200" r="9" fill="#1d1d1b"/>
<circle cx="645.0" cy="200" r="9" fill="#1d1d1b"/>
<circle cx="735.0" cy="200" r="9" fill="#1d1d1b"/>
<circle cx="825.0" cy="200" r="9" fill="#1d1d1b"/>
<line x1="40" y1="278.0" x2="870" y2="278.0" stroke="#d9d6cf"/>
<text x="40" y="257" font-size="13" fill="#1d1d1b">Standing sentence, from Session 99</text>
<circle cx="375.0" cy="252" r="9" fill="#1d1d1b"/>
<circle cx="465.0" cy="252" r="9" fill="#1d1d1b"/>
<circle cx="555.0" cy="252" r="9" fill="#1d1d1b"/>
<circle cx="645.0" cy="252" r="9" fill="#1d1d1b"/>
<circle cx="735.0" cy="252" r="9" fill="#1d1d1b"/>
<circle cx="825.0" cy="252" r="9" fill="none" stroke="#6b6b66" stroke-width="1.5"/>
<line x1="40" y1="330.0" x2="870" y2="330.0" stroke="#d9d6cf"/>
<text x="40" y="309" font-size="13" fill="#1d1d1b">VIM 2.16, measurement error (JCGM 200:2012)</text>
<circle cx="375.0" cy="304" r="9" fill="#1d1d1b"/>
<circle cx="465.0" cy="304" r="9" fill="#1d1d1b"/>
<circle cx="555.0" cy="304" r="9" fill="none" stroke="#6b6b66" stroke-width="1.5"/>
<circle cx="645.0" cy="304" r="9" fill="none" stroke="#1d1d1b" stroke-width="1.5"/><path d="M645.0 295 A9 9 0 0 0 645.0 313 Z" fill="#1d1d1b"/>
<circle cx="735.0" cy="304" r="9" fill="none" stroke="#6b6b66" stroke-width="1.5"/>
<circle cx="825.0" cy="304" r="9" fill="none" stroke="#6b6b66" stroke-width="1.5"/>
<line x1="40" y1="382.0" x2="870" y2="382.0" stroke="#d9d6cf"/>
<text x="40" y="361" font-size="13" fill="#1d1d1b">FDA glossary 8/95, error (ISO)</text>
<circle cx="375.0" cy="356" r="9" fill="#1d1d1b"/>
<circle cx="465.0" cy="356" r="9" fill="#1d1d1b"/>
<circle cx="555.0" cy="356" r="9" fill="none" stroke="#6b6b66" stroke-width="1.5"/>
<circle cx="645.0" cy="356" r="9" fill="none" stroke="#1d1d1b" stroke-width="1.5"/><path d="M645.0 347 A9 9 0 0 0 645.0 365 Z" fill="#1d1d1b"/>
<circle cx="735.0" cy="356" r="9" fill="none" stroke="#6b6b66" stroke-width="1.5"/>
<circle cx="825.0" cy="356" r="9" fill="none" stroke="#6b6b66" stroke-width="1.5"/>
<circle cx="52" cy="430" r="9" fill="#1d1d1b"/><text x="68" y="434" font-size="11" fill="#6b6b66">present</text>
<circle cx="142" cy="430" r="9" fill="none" stroke="#1d1d1b" stroke-width="1.5"/><path d="M142 421 A9 9 0 0 0 142 439 Z" fill="#1d1d1b"/><text x="158" y="434" font-size="11" fill="#6b6b66">partly: VIM’s calibration or convention (Note 1(a)); the FDA’s “specified” value, one of three it allows</text>
<circle cx="52" cy="458" r="9" fill="none" stroke="#6b6b66" stroke-width="1.5"/><text x="68" y="462" font-size="11" fill="#6b6b66">absent. Both standards also admit a “true” value that nobody imposed; the practice's sentence does not.</text>
</svg>
