<svg xmlns="http://www.w3.org/2000/svg" width="1180" height="640" viewBox="0 0 1180 640" font-family="Georgia, 'Times New Roman', serif" fill="#1b1b1b">
<rect width="1180" height="640" fill="#faf8f4"/>
<text x="60" y="38" font-size="21">The same rate, and not the same decisions</text>
<text x="60" y="60" font-size="13" fill="#6f6f6f">R3 -- does the party term nearest the obligation act in its block? -- against one reader, forty rows each. UK statute: Session 90's verdicts, Session 91's scoring, reproduced here. RFCs: read blind tonight. Session 95, 2026-09-22.</text>
<text x="60" y="108" font-size="13">UK statute — where the rule was written</text>
<rect x="60.0" y="126.0" width="30" height="30" fill="#a33" fill-opacity="1.00"/>
<rect x="92.4" y="126.0" width="30" height="30" fill="#d8d2c4" fill-opacity="0.65"/>
<rect x="124.8" y="126.0" width="30" height="30" fill="#a33" fill-opacity="0.30"/>
<rect x="157.2" y="126.0" width="30" height="30" fill="#3c5a54" fill-opacity="1.00"/>
<rect x="189.6" y="126.0" width="30" height="30" fill="#a33" fill-opacity="0.30"/>
<rect x="222.0" y="126.0" width="30" height="30" fill="#d8d2c4" fill-opacity="0.65"/>
<rect x="254.4" y="126.0" width="30" height="30" fill="#d8d2c4" fill-opacity="0.65"/>
<rect x="286.8" y="126.0" width="30" height="30" fill="#3c5a54" fill-opacity="1.00"/>
<rect x="60.0" y="162.0" width="30" height="30" fill="#d8d2c4" fill-opacity="0.65"/>
<rect x="92.4" y="162.0" width="30" height="30" fill="#d8d2c4" fill-opacity="0.65"/>
<rect x="124.8" y="162.0" width="30" height="30" fill="#3c5a54" fill-opacity="1.00"/>
<rect x="157.2" y="162.0" width="30" height="30" fill="#a33" fill-opacity="0.30"/>
<rect x="189.6" y="162.0" width="30" height="30" fill="#3c5a54" fill-opacity="1.00"/>
<rect x="222.0" y="162.0" width="30" height="30" fill="#d8d2c4" fill-opacity="0.65"/>
<rect x="254.4" y="162.0" width="30" height="30" fill="#d8d2c4" fill-opacity="0.65"/>
<rect x="286.8" y="162.0" width="30" height="30" fill="#d8d2c4" fill-opacity="0.65"/>
<rect x="60.0" y="198.0" width="30" height="30" fill="#d8d2c4" fill-opacity="0.65"/>
<rect x="92.4" y="198.0" width="30" height="30" fill="#3c5a54" fill-opacity="1.00"/>
<rect x="124.8" y="198.0" width="30" height="30" fill="#d8d2c4" fill-opacity="0.65"/>
<rect x="157.2" y="198.0" width="30" height="30" fill="#3c5a54" fill-opacity="1.00"/>
<rect x="189.6" y="198.0" width="30" height="30" fill="#3c5a54" fill-opacity="1.00"/>
<rect x="222.0" y="198.0" width="30" height="30" fill="#d8d2c4" fill-opacity="0.65"/>
<rect x="254.4" y="198.0" width="30" height="30" fill="#3c5a54" fill-opacity="1.00"/>
<rect x="286.8" y="198.0" width="30" height="30" fill="#d8d2c4" fill-opacity="0.65"/>
<rect x="60.0" y="234.0" width="30" height="30" fill="#3c5a54" fill-opacity="1.00"/>
<rect x="92.4" y="234.0" width="30" height="30" fill="#3c5a54" fill-opacity="1.00"/>
<rect x="124.8" y="234.0" width="30" height="30" fill="#d8d2c4" fill-opacity="0.65"/>
<rect x="157.2" y="234.0" width="30" height="30" fill="#a33" fill-opacity="0.30"/>
<rect x="189.6" y="234.0" width="30" height="30" fill="#3c5a54" fill-opacity="1.00"/>
<rect x="222.0" y="234.0" width="30" height="30" fill="#d8d2c4" fill-opacity="0.65"/>
<rect x="254.4" y="234.0" width="30" height="30" fill="#a33" fill-opacity="1.00"/>
<rect x="286.8" y="234.0" width="30" height="30" fill="#a33" fill-opacity="1.00"/>
<rect x="60.0" y="270.0" width="30" height="30" fill="#3c5a54" fill-opacity="1.00"/>
<rect x="92.4" y="270.0" width="30" height="30" fill="#a33" fill-opacity="1.00"/>
<rect x="124.8" y="270.0" width="30" height="30" fill="#d8d2c4" fill-opacity="0.65"/>
<rect x="157.2" y="270.0" width="30" height="30" fill="#3c5a54" fill-opacity="1.00"/>
<rect x="189.6" y="270.0" width="30" height="30" fill="#d8d2c4" fill-opacity="0.65"/>
<rect x="222.0" y="270.0" width="30" height="30" fill="#a33" fill-opacity="1.00"/>
<rect x="254.4" y="270.0" width="30" height="30" fill="#a33" fill-opacity="1.00"/>
<rect x="286.8" y="270.0" width="30" height="30" fill="#d8d2c4" fill-opacity="0.65"/>
<text x="60" y="332" font-size="13">the rule fired on <tspan font-size="17">19</tspan> of 40</text>
<text x="60" y="352" font-size="12" fill="#6f6f6f">of those, right on 13 — precision 0.6842</text>
<text x="60" y="370" font-size="12" fill="#6f6f6f">the reader found a bearer in reach on 17</text>
<text x="60" y="388" font-size="12" fill="#6f6f6f">agreement 0.75 · Cohen's κ +0.4962</text>
<text x="360" y="108" font-size="13">the RFC series — where it was not</text>
<rect x="360.0" y="126.0" width="30" height="30" fill="#d8d2c4" fill-opacity="0.65"/>
<rect x="392.4" y="126.0" width="30" height="30" fill="#d8d2c4" fill-opacity="0.65"/>
<rect x="424.8" y="126.0" width="30" height="30" fill="#3c5a54" fill-opacity="1.00"/>
<rect x="457.2" y="126.0" width="30" height="30" fill="#3c5a54" fill-opacity="1.00"/>
<rect x="489.6" y="126.0" width="30" height="30" fill="#3c5a54" fill-opacity="1.00"/>
<rect x="522.0" y="126.0" width="30" height="30" fill="#3c5a54" fill-opacity="1.00"/>
<rect x="554.4" y="126.0" width="30" height="30" fill="#3c5a54" fill-opacity="1.00"/>
<rect x="586.8" y="126.0" width="30" height="30" fill="#d8d2c4" fill-opacity="0.65"/>
<rect x="360.0" y="162.0" width="30" height="30" fill="#a33" fill-opacity="1.00"/>
<rect x="392.4" y="162.0" width="30" height="30" fill="#3c5a54" fill-opacity="1.00"/>
<rect x="424.8" y="162.0" width="30" height="30" fill="#3c5a54" fill-opacity="1.00"/>
<rect x="457.2" y="162.0" width="30" height="30" fill="#d8d2c4" fill-opacity="0.65"/>
<rect x="489.6" y="162.0" width="30" height="30" fill="#a33" fill-opacity="1.00"/>
<rect x="522.0" y="162.0" width="30" height="30" fill="#a33" fill-opacity="1.00"/>
<rect x="554.4" y="162.0" width="30" height="30" fill="#a33" fill-opacity="0.30"/>
<rect x="586.8" y="162.0" width="30" height="30" fill="#d8d2c4" fill-opacity="0.65"/>
<rect x="360.0" y="198.0" width="30" height="30" fill="#d8d2c4" fill-opacity="0.65"/>
<rect x="392.4" y="198.0" width="30" height="30" fill="#a33" fill-opacity="1.00"/>
<rect x="424.8" y="198.0" width="30" height="30" fill="#a33" fill-opacity="0.30"/>
<rect x="457.2" y="198.0" width="30" height="30" fill="#d8d2c4" fill-opacity="0.65"/>
<rect x="489.6" y="198.0" width="30" height="30" fill="#a33" fill-opacity="1.00"/>
<rect x="522.0" y="198.0" width="30" height="30" fill="#a33" fill-opacity="1.00"/>
<rect x="554.4" y="198.0" width="30" height="30" fill="#d8d2c4" fill-opacity="0.65"/>
<rect x="586.8" y="198.0" width="30" height="30" fill="#d8d2c4" fill-opacity="0.65"/>
<rect x="360.0" y="234.0" width="30" height="30" fill="#d8d2c4" fill-opacity="0.65"/>
<rect x="392.4" y="234.0" width="30" height="30" fill="#d8d2c4" fill-opacity="0.65"/>
<rect x="424.8" y="234.0" width="30" height="30" fill="#a33" fill-opacity="1.00"/>
<rect x="457.2" y="234.0" width="30" height="30" fill="#a33" fill-opacity="0.30"/>
<rect x="489.6" y="234.0" width="30" height="30" fill="#d8d2c4" fill-opacity="0.65"/>
<rect x="522.0" y="234.0" width="30" height="30" fill="#d8d2c4" fill-opacity="0.65"/>
<rect x="554.4" y="234.0" width="30" height="30" fill="#a33" fill-opacity="1.00"/>
<rect x="586.8" y="234.0" width="30" height="30" fill="#d8d2c4" fill-opacity="0.65"/>
<rect x="360.0" y="270.0" width="30" height="30" fill="#d8d2c4" fill-opacity="0.65"/>
<rect x="392.4" y="270.0" width="30" height="30" fill="#d8d2c4" fill-opacity="0.65"/>
<rect x="424.8" y="270.0" width="30" height="30" fill="#d8d2c4" fill-opacity="0.65"/>
<rect x="457.2" y="270.0" width="30" height="30" fill="#3c5a54" fill-opacity="1.00"/>
<rect x="489.6" y="270.0" width="30" height="30" fill="#3c5a54" fill-opacity="1.00"/>
<rect x="522.0" y="270.0" width="30" height="30" fill="#d8d2c4" fill-opacity="0.65"/>
<rect x="554.4" y="270.0" width="30" height="30" fill="#3c5a54" fill-opacity="1.00"/>
<rect x="586.8" y="270.0" width="30" height="30" fill="#a33" fill-opacity="0.30"/>
<text x="360" y="332" font-size="13">the rule fired on <tspan font-size="17">18</tspan> of 40</text>
<text x="360" y="352" font-size="12" fill="#6f6f6f">of those, right on 10 — precision 0.5556</text>
<text x="360" y="370" font-size="12" fill="#6f6f6f">the reader found a bearer in reach on 14</text>
<text x="360" y="388" font-size="12" fill="#6f6f6f">agreement 0.70 · Cohen's κ +0.3814</text>
<text x="360" y="406" font-size="12" fill="#a33">in 16 of the 40 the paragraph named no bearer at all</text>
<rect x="60" y="396" width="13" height="13" fill="#3c5a54" fill-opacity="1.00"/>
<text x="80" y="406" font-size="11.5" fill="#6f6f6f">the rule fired and the reader agreed</text>
<rect x="60" y="416" width="13" height="13" fill="#a33" fill-opacity="1.00"/>
<text x="80" y="426" font-size="11.5" fill="#6f6f6f">the rule fired and the reader did not</text>
<rect x="60" y="436" width="13" height="13" fill="#a33" fill-opacity="0.30"/>
<text x="80" y="446" font-size="11.5" fill="#6f6f6f">the rule was silent where the reader named that term</text>
<rect x="60" y="456" width="13" height="13" fill="#d8d2c4" fill-opacity="0.65"/>
<text x="80" y="466" font-size="11.5" fill="#6f6f6f">both said no</text>
<text x="700" y="108" font-size="13">What forty rows could have separated</text>
<text x="700" y="126" font-size="11.5" fill="#6f6f6f">Fisher's exact, two-sided, UK held at 13 right of 19.</text>
<rect x="700.0" y="128.0" width="116.7" height="300" fill="#d8d2c4" fill-opacity="0.55"/>
<text x="706.0" y="144.0" font-size="11" fill="#6f6f6f">only here</text>
<line x1="700.0" y1="413.0" x2="1120.0" y2="413.0" stroke="#a33" stroke-width="1" stroke-dasharray="5 4"/>
<text x="1120.0" y="407.0" font-size="11" fill="#a33" text-anchor="end">p = 0.05</text>
<path d="M700.0 428.0 L723.4 428.0 L746.7 427.8 L770.0 427.2 L793.3 425.6 L816.7 421.5 L840.0 412.9 L863.3 397.1 L886.6 370.6 L910.0 330.6 L933.4 275.7 L956.7 206.8 L980.0 128.0 L1003.3 128.0 L1026.7 213.8 L1050.0 293.9 L1073.3 358.4 L1096.6 401.1 L1120.0 422.1" fill="none" stroke="#3c5a54" stroke-width="1.6"/>
<circle cx="933.4" cy="275.7" r="5" fill="#a33"/>
<text x="943.4" y="267.7" font-size="11.5" fill="#1b1b1b">observed: 0.5556, p = 0.5077</text>
<line x1="987.4" y1="128" x2="987.4" y2="428" stroke="#6f6f6f" stroke-width="0.8" stroke-dasharray="2 3"/>
<text x="987.4" y="122" font-size="11" fill="#6f6f6f" text-anchor="middle">UK 0.6842</text>
<line x1="700.0" y1="428" x2="1120.0" y2="428" stroke="#1b1b1b"/>
<line x1="700.0" y1="128" x2="700.0" y2="428" stroke="#1b1b1b"/>
<text x="700.0" y="444" font-size="11" fill="#6f6f6f" text-anchor="middle">0.00</text>
<text x="805.0" y="444" font-size="11" fill="#6f6f6f" text-anchor="middle">0.25</text>
<text x="910.0" y="444" font-size="11" fill="#6f6f6f" text-anchor="middle">0.50</text>
<text x="1015.0" y="444" font-size="11" fill="#6f6f6f" text-anchor="middle">0.75</text>
<text x="1120.0" y="444" font-size="11" fill="#6f6f6f" text-anchor="middle">1.00</text>
<text x="910.0" y="464" font-size="11.5" fill="#6f6f6f" text-anchor="middle">the rule's precision in the RFC series, swept</text>
<text x="692.0" y="432.0" font-size="11" fill="#6f6f6f" text-anchor="end">0.0</text>
<text x="692.0" y="282.0" font-size="11" fill="#6f6f6f" text-anchor="end">0.5</text>
<text x="692.0" y="132.0" font-size="11" fill="#6f6f6f" text-anchor="end">1.0</text>
<text x="700" y="504" font-size="13">The observed gap is 12.86 points. The smallest gap these forty rows could have seen is 40.64.</text>
<text x="700" y="526" font-size="12" fill="#6f6f6f">Across four traditions the fire rate itself spans 39.44 points (Session 94). The check is coarser than the thing it was brought in to check.</text>
<text x="60" y="622" font-size="11" fill="#6f6f6f">Every number recomputable from this directory: draw.py, verdicts.json, adjudicate.py, inspect.py. No network.</text>
</svg>
