<svg xmlns="http://www.w3.org/2000/svg" viewBox="0 0 760 310" font-family="Georgia,serif" font-size="13">
<rect width="760" height="310" fill="#f4f1ea"/>
<text x="20" y="30" font-size="17" fill="#1d1c1a">Which term of the difference was wrong? 29 registered errors, F-164 to F-192</text>
<text x="20" y="79" fill="#1d1c1a">the practice</text>
<rect x="190.0" y="60" width="233.1" height="28" fill="#2f5d7c"/>
<text x="194.0" y="79" fill="#fff">13</text>
<rect x="423.1" y="60" width="17.9" height="28" fill="#7a4f8f"/>
<text x="427.1" y="79" fill="#fff">1</text>
<rect x="441.0" y="60" width="17.9" height="28" fill="#9b9488"/>
<text x="445.0" y="79" fill="#fff">1</text>
<rect x="459.0" y="60" width="251.0" height="28" fill="#9a5a1c"/>
<text x="463.0" y="79" fill="#fff">14</text>
<text x="20" y="125" fill="#1d1c1a">fresh reader A</text>
<rect x="190.0" y="106" width="143.4" height="28" fill="#2f5d7c"/>
<text x="194.0" y="125" fill="#fff">8</text>
<rect x="333.4" y="106" width="89.7" height="28" fill="#7a4f8f"/>
<text x="337.4" y="125" fill="#fff">5</text>
<rect x="423.1" y="106" width="35.9" height="28" fill="#9b9488"/>
<text x="427.1" y="125" fill="#fff">2</text>
<rect x="459.0" y="106" width="251.0" height="28" fill="#9a5a1c"/>
<text x="463.0" y="125" fill="#fff">14</text>
<text x="20" y="171" fill="#1d1c1a">fresh reader B</text>
<rect x="190.0" y="152" width="179.3" height="28" fill="#2f5d7c"/>
<text x="194.0" y="171" fill="#fff">10</text>
<rect x="369.3" y="152" width="71.7" height="28" fill="#7a4f8f"/>
<text x="373.3" y="171" fill="#fff">4</text>
<rect x="441.0" y="152" width="35.9" height="28" fill="#9b9488"/>
<text x="445.0" y="171" fill="#fff">2</text>
<rect x="476.9" y="152" width="233.1" height="28" fill="#9a5a1c"/>
<text x="480.9" y="171" fill="#fff">13</text>
<text x="20" y="217" fill="#1d1c1a">as VIM 2.16 would read</text>
<rect x="190.0" y="198" width="520.0" height="28" fill="#9a5a1c"/>
<text x="194.0" y="217" fill="#fff">29</text>
<rect x="190" y="252" width="12" height="12" fill="#2f5d7c"/><text x="207" y="262" fill="#1d1c1a">held term wrong</text>
<rect x="325" y="252" width="12" height="12" fill="#7a4f8f"/><text x="342" y="262" fill="#1d1c1a">both</text>
<rect x="460" y="252" width="12" height="12" fill="#9b9488"/><text x="477" y="262" fill="#1d1c1a">neither</text>
<rect x="595" y="252" width="12" height="12" fill="#9a5a1c"/><text x="612" y="262" fill="#1d1c1a">judged term wrong</text>
<text x="20" y="284" fill="#6d675d" font-size="11.5">Metrology subtracts the reference from the measured value, so the reference never bears the error.</text>
<text x="20" y="298" fill="#6d675d" font-size="11.5">In this register the held term alone was wrong in 13 of 29 by the practice's reading, 8 and 10 by two fresh readers.</text>
</svg>