<svg xmlns="http://www.w3.org/2000/svg" viewBox="0 0 1024.000000 1024.000000"><style>.d{fill:#000}.m{fill:#fff}@media(prefers-color-scheme:dark){.d{fill:#fff}.m{fill:#000}}</style><circle class="d" cx="512" cy="512" r="512"/><g class="m" transform="translate(0.000000,1024.000000) scale(0.100000,-0.100000)" stroke="none">
<path d="M4550 10185 c-21 -25 -3 -30 98 -28 157 4 250 14 269 29 15 11 -8 13
-168 14 -155 0 -189 -3 -199 -15z"/>
<path d="M5294 10184 c39 -14 314 -35 348 -26 14 3 15 8 7 23 -9 18 -23 19
-202 18 -179 0 -189 -1 -153 -15z"/>
<path d="M4261 10141 c-9 -16 -7 -20 12 -25 43 -10 187 19 187 39 0 3 -43 5
-95 5 -82 0 -96 -2 -104 -19z"/>
<path d="M5773 10143 c17 -17 123 -35 157 -26 16 4 18 9 9 24 -8 16 -22 19
-96 19 -82 0 -86 -1 -70 -17z"/>
<path d="M4059 10104 c-10 -13 -10 -17 2 -25 21 -14 101 1 124 22 19 19 18 19
-47 19 -47 0 -69 -4 -79 -16z"/>
<path d="M6022 10108 c6 -18 78 -40 106 -33 19 5 21 9 12 25 -9 16 -21 20 -66
20 -40 0 -55 -4 -52 -12z"/>
<path d="M3899 10064 c-31 -38 47 -41 86 -3 19 19 19 19 -27 19 -29 0 -50 -6
-59 -16z"/>
<path d="M6220 10071 c0 -16 25 -29 71 -36 50 -7 70 5 49 30 -14 16 -120 22
-120 6z"/>
<path d="M3734 10023 c-14 -15 -14 -17 0 -25 23 -13 74 0 85 21 8 14 4 17 -30
18 -24 1 -45 -4 -55 -14z"/>
<path d="M6402 10031 c-11 -6 -10 -11 3 -25 18 -17 42 -20 63 -7 11 6 10 11
-3 25 -18 17 -42 20 -63 7z"/>
<path d="M3607 9976 c-4 -9 1 -17 12 -21 23 -7 48 2 55 21 4 10 -3 14 -28 14
-20 0 -36 -6 -39 -14z"/>
<path d="M6549 9970 c29 -25 96 -28 87 -4 -3 9 -6 18 -6 20 0 2 -24 4 -52 4
-53 -1 -53 -1 -29 -20z"/>
<path d="M3485 9940 c-3 -5 -3 -14 0 -20 11 -17 44 -11 55 10 10 18 8 20 -19
20 -16 0 -33 -4 -36 -10z"/>
<path d="M6675 9930 c12 -13 31 -20 57 -20 36 0 38 2 28 20 -8 16 -21 20 -57
20 -45 0 -46 0 -28 -20z"/>
<path d="M3367 9903 c-4 -3 -7 -12 -7 -20 0 -21 48 -16 60 7 10 18 8 20 -18
20 -16 0 -32 -3 -35 -7z"/>
<path d="M6782 9898 c7 -21 36 -34 49 -21 6 6 8 16 5 22 -10 15 -59 14 -54 -1z"/>
<path d="M3242 9858 c-21 -21 -13 -29 25 -26 27 2 39 8 41 21 3 13 -3 17 -25
17 -16 0 -34 -5 -41 -12z"/>
<path d="M6900 9850 c10 -20 70 -30 70 -12 0 17 -25 32 -52 32 -26 0 -28 -2
-18 -20z"/>
<path d="M3156 9814 c-9 -23 -8 -24 23 -24 24 0 41 14 41 36 0 12 -59 2 -64
-12z"/>
<path d="M6994 9814 c3 -9 6 -18 6 -20 0 -7 36 -5 43 3 11 10 -14 33 -35 33
-14 0 -18 -5 -14 -16z"/>
<path d="M3076 9774 c-9 -24 -8 -26 16 -22 29 4 38 38 10 38 -11 0 -23 -7 -26
-16z"/>
<path d="M7096 9775 c8 -19 36 -35 63 -35 11 0 24 -7 29 -16 5 -9 22 -16 38
-16 18 0 38 -10 52 -25 14 -16 29 -22 41 -18 13 4 23 -2 35 -20 11 -17 26 -25
44 -25 16 0 32 -8 40 -20 7 -11 23 -20 37 -20 14 0 29 -8 35 -20 6 -11 19 -20
29 -20 10 0 24 -7 31 -15 12 -14 50 -21 50 -9 0 16 -62 64 -83 64 -15 0 -31
10 -41 25 -11 17 -26 25 -46 25 -19 0 -33 7 -40 20 -7 13 -21 20 -40 20 -19 0
-33 7 -40 20 -7 13 -21 20 -40 20 -19 0 -33 7 -40 20 -7 13 -21 20 -40 20 -19
0 -34 7 -42 20 -16 25 -81 29 -72 5z"/>
<path d="M2950 9730 c-7 -13 -21 -20 -40 -20 -19 0 -33 -7 -40 -20 -6 -12 -21
-20 -36 -20 -22 0 -94 -56 -94 -74 0 -13 38 -5 44 9 3 8 15 15 26 15 11 0 28
9 37 20 10 11 28 20 40 20 13 0 32 9 43 20 11 11 28 20 38 20 21 0 62 27 62
41 0 5 -16 9 -35 9 -24 0 -37 -6 -45 -20z"/>
<path d="M2667 9573 c-14 -13 -6 -24 15 -21 27 4 36 28 11 28 -11 0 -23 -3
-26 -7z"/>
<path d="M2580 9520 c-9 -18 -8 -20 14 -20 15 0 30 8 36 20 9 18 8 20 -14 20
-15 0 -30 -8 -36 -20z"/>
<path d="M2482 9466 c-24 -25 -29 -35 -18 -39 8 -3 22 3 31 13 9 10 27 20 38
22 12 2 23 11 25 21 6 30 -40 20 -76 -17z"/>
<path d="M7652 9483 c2 -11 14 -19 31 -21 15 -2 32 -12 37 -23 6 -10 17 -19
25 -19 9 0 23 -9 32 -20 17 -19 53 -28 53 -12 0 18 -69 72 -93 72 -16 0 -30 8
-37 20 -14 25 -53 27 -48 3z"/>
<path d="M5478 9450 c-37 -5 -71 -11 -77 -14 -5 -3 -51 -10 -103 -16 -52 -5
-110 -16 -129 -23 -19 -8 -58 -18 -88 -21 -30 -4 -63 -12 -73 -17 -10 -6 -51
-16 -91 -24 -112 -21 -187 -36 -247 -52 -174 -45 -202 -54 -362 -127 -31 -14
-59 -26 -63 -26 -3 0 -35 -18 -71 -40 -36 -22 -68 -40 -71 -40 -2 0 -41 -25
-86 -56 -188 -130 -337 -279 -449 -449 -64 -97 -168 -301 -168 -329 0 -9 -9
-34 -20 -56 -11 -22 -20 -48 -20 -58 0 -11 -10 -48 -21 -83 -20 -59 -22 -84
-22 -329 0 -244 2 -270 22 -329 11 -35 21 -75 21 -90 0 -14 9 -46 20 -70 11
-24 20 -50 20 -58 0 -15 10 -39 61 -150 16 -34 29 -64 29 -67 0 -7 106 -193
138 -241 121 -182 224 -301 566 -656 72 -74 171 -182 220 -240 50 -57 100
-115 113 -127 13 -13 22 -29 21 -34 -5 -13 -134 -58 -168 -58 -14 0 -43 -9
-66 -19 -23 -10 -60 -22 -83 -26 -22 -4 -43 -10 -46 -15 -3 -4 -29 -14 -57
-21 -29 -6 -62 -18 -73 -25 -11 -7 -37 -16 -58 -19 -20 -4 -39 -11 -42 -15 -3
-5 -22 -14 -43 -20 -33 -11 -68 -25 -157 -65 -256 -113 -503 -260 -621 -367
-53 -49 -84 -112 -84 -167 1 -44 42 -114 85 -143 58 -39 112 -45 189 -19 34
11 69 21 77 21 8 0 31 9 52 20 20 11 42 20 48 20 7 0 33 9 58 21 25 12 64 29
86 39 22 11 60 28 85 38 25 11 71 32 102 46 31 14 61 26 67 26 5 0 22 7 38 15
32 17 121 53 205 84 52 20 80 30 198 71 45 16 154 48 205 62 22 6 60 17 85 25
25 8 77 20 115 28 39 7 79 16 91 20 17 5 26 -1 45 -32 55 -89 199 -374 199
-394 0 -8 6 -24 14 -35 17 -23 52 -120 67 -179 5 -22 16 -56 23 -75 21 -52 55
-206 62 -280 3 -36 12 -103 20 -149 18 -108 18 -331 0 -446 -8 -49 -18 -126
-22 -170 -4 -44 -12 -96 -19 -115 -7 -20 -16 -60 -20 -90 -4 -30 -13 -66 -20
-80 -7 -14 -18 -48 -24 -75 -10 -53 -42 -149 -67 -202 -7 -17 -14 -36 -14 -42
0 -12 -109 -237 -155 -320 -31 -55 -44 -71 -60 -71 -7 0 -99 88 -206 196 -191
194 -372 358 -457 415 -24 16 -45 29 -47 29 -2 0 -21 11 -41 25 -32 21 -109
60 -239 120 -16 8 -43 17 -60 20 -16 4 -46 13 -65 21 -19 7 -60 18 -90 23 -30
5 -75 15 -100 22 -60 16 -391 16 -445 0 -22 -6 -71 -18 -110 -26 -107 -21
-162 -40 -290 -101 -99 -48 -218 -135 -282 -208 -50 -57 -128 -173 -138 -206
-4 -14 -12 -30 -17 -37 -45 -57 -74 -362 -45 -478 9 -33 20 -78 26 -100 29
-116 101 -259 182 -361 66 -83 181 -190 264 -245 76 -51 264 -149 284 -149 7
0 25 -6 39 -14 37 -20 192 -66 221 -66 13 0 51 -8 85 -17 87 -25 509 -26 606
-1 36 9 87 20 115 23 27 4 61 13 75 20 14 7 43 16 65 19 22 4 49 13 60 20 11
7 32 16 47 20 66 16 342 160 369 192 6 8 16 14 21 14 11 0 99 64 162 119 27
24 53 38 59 34 17 -10 171 -127 177 -134 8 -10 251 -172 300 -201 173 -100
480 -228 546 -228 12 0 50 -9 85 -21 57 -19 88 -21 274 -21 188 0 217 2 274
21 35 11 70 21 78 21 8 0 29 6 46 14 18 8 61 27 97 42 36 15 77 36 92 46 14
10 30 18 34 18 13 0 83 49 200 142 276 217 525 543 684 893 12 28 31 67 41 87
11 20 19 43 19 49 0 7 8 31 18 53 27 62 52 136 63 186 5 25 15 61 23 80 7 19
17 60 21 90 4 30 13 78 21 106 34 122 34 623 0 746 -8 29 -18 78 -21 108 -4
30 -13 69 -20 86 -7 17 -16 51 -20 75 -4 24 -13 55 -20 69 -8 14 -20 45 -28
70 -41 125 -102 263 -190 425 -118 216 -336 478 -539 648 -79 66 -277 199
-363 243 -109 57 -106 56 -258 123 -26 11 -55 21 -65 21 -9 1 -35 9 -57 20
-22 11 -49 19 -60 20 -12 0 -46 9 -78 20 -31 11 -70 20 -87 20 -17 0 -70 9
-118 19 -143 32 -426 42 -702 27 -129 -8 -243 -17 -253 -21 -23 -10 -34 0
-151 144 -55 69 -197 233 -315 366 -281 316 -429 500 -503 625 -18 30 -42 69
-53 86 -12 18 -45 78 -73 135 -47 96 -62 130 -91 217 -6 17 -16 47 -22 65 -56
162 -75 411 -43 572 25 133 75 281 115 345 5 8 13 25 19 38 22 50 122 172 199
243 107 97 173 138 371 234 35 16 177 59 287 85 78 19 120 22 296 22 212 0
214 0 392 -52 60 -17 130 -43 141 -52 6 -4 33 -20 60 -34 123 -65 250 -182
329 -304 64 -99 145 -265 145 -296 0 -8 9 -31 20 -51 11 -21 20 -47 20 -58 0
-11 9 -46 20 -78 11 -31 20 -69 20 -85 0 -16 7 -51 15 -78 8 -27 20 -91 25
-143 6 -51 17 -120 25 -151 8 -32 15 -75 15 -95 0 -21 10 -55 22 -76 39 -71
97 -63 142 18 30 53 76 163 76 181 0 7 9 38 20 69 37 109 52 395 30 588 -17
144 -65 307 -125 419 -14 27 -24 51 -21 53 2 2 21 0 43 -6 60 -17 143 -13 211
10 103 35 102 67 -2 110 -110 45 -465 227 -497 255 -8 8 -20 14 -25 14 -5 0
-34 17 -65 39 -31 21 -66 42 -77 45 -27 9 -28 27 -2 51 13 12 20 31 20 57 0
72 -103 158 -225 188 -122 30 -283 38 -437 20z m254 -4195 c100 -9 194 -20
208 -26 14 -6 57 -17 95 -25 114 -21 234 -64 380 -136 114 -56 111 -54 224
-127 228 -147 456 -387 601 -631 88 -149 181 -356 212 -475 6 -22 19 -66 29
-98 11 -31 19 -70 19 -85 0 -16 8 -53 18 -83 14 -45 17 -93 17 -299 0 -205 -3
-254 -17 -302 -10 -31 -18 -69 -18 -85 -1 -15 -8 -46 -16 -68 -8 -22 -21 -62
-28 -90 -25 -95 -124 -314 -188 -415 -8 -14 -33 -53 -54 -88 -96 -156 -278
-358 -417 -463 -133 -100 -240 -149 -397 -179 -105 -20 -105 -20 -235 4 -132
25 -190 41 -280 78 -101 43 -149 68 -302 157 -97 56 -337 241 -347 266 -8 20
-3 34 32 82 53 74 170 277 178 308 3 13 12 29 20 36 8 6 14 16 14 22 0 6 9 29
19 51 48 103 71 160 71 172 0 8 9 31 20 51 11 21 20 47 20 59 0 12 9 41 20 65
11 24 20 55 20 69 1 14 8 43 16 65 9 22 20 68 25 103 4 35 15 87 23 115 8 29
20 102 26 162 6 61 15 139 20 175 11 84 12 346 0 430 -4 36 -15 122 -23 191
-8 69 -19 135 -25 146 -6 11 -14 44 -17 74 -4 30 -15 78 -26 107 -10 29 -19
60 -19 70 -1 9 -9 35 -20 57 -11 22 -19 48 -20 57 0 10 -10 39 -21 65 -45 102
-58 130 -82 183 -29 65 -73 155 -92 190 -26 49 -23 64 15 71 59 11 111 10 302
-6z m-2267 -2379 c67 -7 135 -21 152 -30 18 -9 39 -16 48 -16 14 0 95 -37 135
-61 8 -5 31 -18 51 -29 78 -42 263 -206 484 -428 127 -128 230 -236 230 -241
0 -17 -173 -144 -275 -200 -132 -74 -295 -137 -395 -152 -33 -5 -76 -14 -95
-19 -62 -18 -192 -22 -260 -10 -36 7 -96 18 -135 25 -38 6 -86 19 -105 27 -19
9 -60 26 -90 39 -30 13 -89 45 -130 72 -198 130 -316 295 -355 493 -18 89 -18
92 3 172 23 91 59 150 128 210 53 47 145 102 172 102 9 0 28 7 41 16 15 11 66
21 144 29 67 7 124 13 127 14 3 0 59 -5 125 -13z"/>
<path d="M2361 9385 c-31 -32 -32 -35 -12 -35 11 0 21 4 21 9 0 5 14 14 30 20
17 5 30 17 30 25 0 27 -33 17 -69 -19z"/>
<path d="M7844 9364 c3 -9 6 -18 6 -20 0 -2 7 -4 15 -4 8 0 23 -8 33 -17 15
-15 48 -35 87 -52 6 -2 -15 21 -45 52 -36 37 -63 57 -79 57 -17 0 -22 -4 -17
-16z"/>
<path d="M2231 9299 c-29 -34 -31 -39 -13 -39 11 0 26 7 33 16 7 9 23 20 36
25 30 11 30 39 1 38 -14 0 -37 -17 -57 -40z"/>
<path d="M2095 9203 c-41 -41 -53 -59 -42 -61 9 -2 25 5 36 15 37 34 55 48 76
58 11 6 21 18 23 28 7 35 -37 16 -93 -40z"/>
<path d="M8020 9245 c0 -8 10 -20 23 -26 12 -7 26 -18 30 -25 4 -8 18 -14 30
-14 19 0 17 4 -18 40 -40 41 -65 51 -65 25z"/>
<path d="M8130 9162 c0 -11 76 -72 89 -72 6 0 11 -4 11 -9 0 -11 111 -93 117
-87 2 2 -35 42 -83 90 -60 60 -93 86 -110 86 -13 0 -24 -4 -24 -8z"/>
<path d="M1868 9018 c-60 -60 -108 -111 -108 -113 0 -2 18 8 40 22 22 15 40
30 40 35 0 4 7 8 15 8 8 0 19 9 25 20 6 11 17 20 25 20 8 0 15 4 15 9 0 5 22
26 50 47 60 46 70 65 32 63 -20 -1 -53 -28 -134 -111z"/>
<path d="M8380 8957 c0 -8 19 -29 42 -48 51 -41 183 -165 247 -233 25 -27 67
-70 92 -96 25 -26 58 -63 73 -83 16 -21 35 -37 42 -37 42 0 -2 55 -222 274
-219 219 -274 264 -274 223z"/>
<path d="M1543 8733 c-107 -108 -131 -143 -100 -143 15 0 242 223 251 246 4
10 -2 14 -17 13 -14 0 -61 -41 -134 -116z"/>
<path d="M1286 8435 c-90 -91 -117 -135 -81 -135 9 0 20 11 25 25 5 14 17 28
25 31 8 4 15 12 15 20 0 7 6 17 14 21 20 12 109 123 103 130 -3 2 -49 -39
-101 -92z"/>
<path d="M8900 8437 c0 -11 38 -62 77 -106 18 -20 33 -41 33 -47 0 -10 21 -24
36 -24 14 0 0 43 -20 62 -13 13 -47 45 -75 73 -28 27 -51 46 -51 42z"/>
<path d="M1116 8224 c-56 -57 -64 -76 -33 -82 11 -2 19 6 23 22 3 14 9 26 13
26 9 0 63 81 58 87 -2 2 -30 -22 -61 -53z"/>
<path d="M9070 8226 c0 -11 43 -76 50 -76 4 0 11 -12 14 -26 4 -16 12 -24 23
-22 30 6 24 25 -27 76 -48 49 -60 58 -60 48z"/>
<path d="M993 8060 c-55 -51 -70 -90 -34 -90 12 0 23 11 30 30 5 17 15 30 20
30 6 0 11 6 11 13 0 8 9 24 20 37 11 13 20 25 20 27 0 11 -21 -4 -67 -47z"/>
<path d="M9186 8055 c4 -8 10 -15 15 -15 5 0 9 -7 9 -15 0 -8 9 -23 20 -32 11
-10 20 -23 20 -30 0 -14 27 -43 41 -43 5 0 9 10 9 23 0 13 -21 42 -54 75 -55
54 -70 63 -60 37z"/>
<path d="M902 7925 c-12 -14 -26 -25 -32 -25 -5 0 -10 -13 -10 -30 0 -44 26
-38 47 13 7 15 17 27 23 27 5 0 10 9 10 20 0 27 -12 25 -38 -5z"/>
<path d="M9300 7885 c0 -18 5 -25 20 -25 22 0 26 20 8 38 -19 19 -28 14 -28
-13z"/>
<path d="M838 7822 c-22 -4 -24 -42 -3 -42 16 0 30 23 23 38 -1 4 -11 6 -20 4z"/>
<path d="M9350 7811 c0 -5 6 -14 14 -21 8 -6 16 -21 18 -33 4 -26 38 -37 38
-12 0 9 -13 30 -29 46 -30 30 -41 35 -41 20z"/>
<path d="M768 7710 c-32 -33 -38 -73 -10 -68 10 2 18 14 20 31 2 16 10 31 18
34 14 5 20 33 7 33 -5 -1 -20 -14 -35 -30z"/>
<path d="M9422 7688 c2 -12 11 -24 21 -26 24 -5 22 25 -4 38 -18 10 -20 9 -17
-12z"/>
<path d="M718 7619 c-22 -12 -24 -49 -3 -49 17 0 28 21 23 44 -2 11 -7 12 -20
5z"/>
<path d="M9470 7606 c0 -7 7 -19 15 -26 8 -7 15 -21 15 -31 0 -10 9 -23 20
-29 13 -7 20 -21 20 -40 0 -19 7 -33 20 -40 13 -7 20 -21 20 -40 0 -19 7 -33
19 -40 26 -14 26 -13 29 14 1 16 -7 29 -24 41 -18 12 -24 23 -21 37 4 13 -3
28 -19 43 -13 12 -24 32 -24 44 0 13 -13 36 -29 52 -33 32 -41 35 -41 15z"/>
<path d="M660 7521 c-7 -13 -7 -22 0 -26 15 -9 30 4 30 26 0 25 -16 25 -30 0z"/>
<path d="M628 7449 c-22 -12 -24 -39 -3 -39 16 0 29 22 23 39 -2 6 -9 6 -20 0z"/>
<path d="M588 7369 c-22 -12 -24 -39 -3 -39 16 0 29 22 23 39 -2 6 -9 6 -20 0z"/>
<path d="M9620 7315 c0 -14 9 -30 20 -37 12 -8 20 -24 20 -41 0 -15 9 -35 20
-44 11 -10 20 -28 20 -41 0 -31 17 -62 35 -62 10 0 15 11 15 36 0 27 -5 37
-20 41 -15 4 -20 14 -20 39 0 23 -6 37 -20 44 -13 7 -20 21 -20 40 0 19 -7 33
-19 40 -28 14 -31 13 -31 -15z"/>
<path d="M548 7289 c-24 -14 -23 -39 2 -39 15 0 20 7 20 25 0 28 1 28 -22 14z"/>
<path d="M497 7203 c-15 -15 -7 -43 13 -43 15 0 20 7 20 25 0 24 -18 34 -33
18z"/>
<path d="M463 7123 c-7 -2 -13 -18 -13 -35 0 -23 4 -29 16 -24 9 3 18 6 20 6
2 0 4 14 4 30 0 30 -4 33 -27 23z"/>
<path d="M423 7043 c-7 -2 -13 -20 -13 -40 0 -27 4 -34 18 -31 12 2 18 14 20
41 3 36 0 41 -25 30z"/>
<path d="M9752 7023 c4 -37 38 -45 38 -10 0 21 -16 37 -36 37 -3 0 -4 -12 -2
-27z"/>
<path d="M9792 6933 c2 -27 8 -39 21 -41 26 -5 24 54 -4 68 -19 11 -20 9 -17
-27z"/>
<path d="M388 6919 c-11 -6 -18 -22 -18 -39 0 -19 -7 -33 -20 -40 -24 -13 -30
-90 -6 -90 17 0 26 22 26 65 0 22 7 37 21 46 28 19 24 74 -3 58z"/>
<path d="M9832 6813 c2 -17 10 -29 21 -31 15 -3 18 2 15 25 -2 17 -10 29 -21
31 -15 3 -18 -2 -15 -25z"/>
<path d="M308 6719 c-13 -7 -18 -23 -18 -54 0 -25 4 -45 10 -45 16 0 31 39 28
75 -3 29 -6 32 -20 24z"/>
<path d="M9873 6704 c-7 -18 6 -45 26 -52 9 -3 11 6 9 29 -3 36 -24 50 -35 23z"/>
<path d="M9916 6593 c-12 -12 -6 -51 9 -63 21 -17 29 -4 26 41 -1 18 -25 32
-35 22z"/>
<path d="M256 6544 c-18 -18 -20 -33 -6 -54 9 -13 12 -12 25 4 29 38 12 81
-19 50z"/>
<path d="M9954 6465 c-9 -23 5 -82 20 -88 15 -6 29 53 20 78 -8 20 -34 27 -40
10z"/>
<path d="M206 6408 c-8 -47 -4 -78 10 -78 16 0 34 39 34 76 0 32 -38 34 -44 2z"/>
<path d="M9993 6294 c-8 -22 10 -78 28 -82 11 -2 15 7 16 35 2 53 -29 86 -44
47z"/>
<path d="M172 6258 c-14 -14 -16 -94 -3 -102 16 -10 32 21 34 65 2 43 -10 58
-31 37z"/>
<path d="M10035 6140 c-12 -20 6 -108 26 -126 19 -17 19 -16 19 49 0 55 -3 68
-19 77 -14 7 -22 7 -26 0z"/>
<path d="M138 6099 c-15 -8 -18 -24 -18 -92 1 -81 1 -82 19 -60 20 24 38 140
24 154 -4 4 -16 3 -25 -2z"/>
<path d="M10075 5931 c-3 -5 -2 -41 1 -80 5 -50 12 -75 25 -87 18 -17 19 -14
19 64 0 44 -3 87 -6 96 -7 18 -29 21 -39 7z"/>
<path d="M92 5848 c-8 -8 -12 -45 -12 -102 0 -85 1 -89 17 -73 11 10 20 42 24
84 10 92 1 121 -29 91z"/>
<path d="M10117 5647 c-10 -27 10 -252 26 -287 15 -34 15 -30 16 122 1 145 -1
158 -18 167 -14 8 -20 7 -24 -2z"/>
<path d="M56 5525 c-14 -15 -16 -65 -16 -470 0 -444 0 -455 20 -465 15 -8 20
-8 20 2 3 97 0 942 -3 945 -3 2 -12 -3 -21 -12z"/>
<path d="M10142 4775 c-18 -52 -34 -297 -21 -310 6 -6 15 -4 24 6 13 13 15 43
13 180 -3 152 -4 161 -16 124z"/>
<path d="M80 4377 c0 -95 2 -107 19 -117 28 -14 32 8 22 108 -6 55 -14 90 -25
100 -15 15 -16 8 -16 -91z"/>
<path d="M10099 4360 c-19 -28 -30 -106 -20 -133 5 -15 9 -16 24 -5 15 11 17
26 15 88 -3 73 -3 74 -19 50z"/>
<path d="M120 4136 c0 -64 16 -96 40 -81 13 8 3 113 -12 133 -21 25 -28 11
-28 -52z"/>
<path d="M10052 4118 c-15 -19 -24 -81 -13 -97 18 -28 41 6 41 60 0 49 -8 60
-28 37z"/>
<path d="M160 3956 c0 -45 19 -74 40 -61 13 8 5 72 -12 93 -19 22 -28 12 -28
-32z"/>
<path d="M10011 3926 c-7 -8 -15 -39 -18 -70 -5 -52 -5 -55 16 -49 25 6 23 2
26 76 3 58 -3 68 -24 43z"/>
<path d="M204 3785 c1 -45 19 -70 39 -58 12 7 2 70 -14 89 -20 24 -27 16 -25
-31z"/>
<path d="M9960 3751 c-23 -44 -5 -85 24 -55 18 17 18 20 10 52 -8 27 -20 28
-34 3z"/>
<path d="M245 3661 c-7 -23 2 -48 20 -55 19 -7 28 10 21 38 -8 30 -33 41 -41
17z"/>
<path d="M9920 3615 c-14 -17 -10 -47 8 -53 14 -4 32 36 25 56 -7 16 -18 15
-33 -3z"/>
<path d="M286 3534 c-8 -20 12 -56 27 -51 21 6 20 45 -1 56 -16 8 -21 7 -26
-5z"/>
<path d="M9888 3499 c-22 -12 -24 -59 -3 -59 18 0 28 20 23 49 -2 16 -7 18
-20 10z"/>
<path d="M332 3393 c2 -17 10 -29 21 -31 15 -3 18 2 15 25 -2 17 -10 29 -21
31 -15 3 -18 -2 -15 -25z"/>
<path d="M9842 3378 c-7 -7 -12 -25 -12 -40 0 -26 2 -28 20 -18 13 7 20 21 20
40 0 32 -9 37 -28 18z"/>
<path d="M370 3276 c0 -20 2 -36 4 -36 2 0 12 -3 21 -6 14 -6 16 -1 13 32 -2
27 -8 40 -20 42 -15 3 -18 -4 -18 -32z"/>
<path d="M9801 3266 c-7 -8 -15 -31 -18 -51 -3 -20 -12 -39 -19 -42 -12 -4
-21 -63 -10 -63 23 0 36 17 36 45 0 25 5 35 20 40 16 5 20 15 20 46 0 41 -9
49 -29 25z"/>
<path d="M410 3186 c0 -14 2 -26 4 -26 2 0 12 -3 21 -6 13 -6 16 -1 13 22 -4
38 -38 47 -38 10z"/>
<path d="M450 3076 c0 -25 6 -38 20 -46 13 -7 20 -21 20 -40 0 -19 7 -33 20
-40 13 -7 20 -21 20 -40 0 -19 7 -33 20 -40 12 -6 20 -21 20 -37 0 -15 11 -36
25 -49 15 -14 22 -29 19 -39 -6 -15 50 -85 69 -85 14 0 7 38 -8 44 -8 3 -15
15 -15 26 0 11 -9 28 -20 37 -11 10 -20 28 -20 40 0 13 -9 28 -20 35 -12 8
-20 24 -20 41 0 15 -9 35 -20 44 -11 10 -20 28 -20 40 0 13 -8 31 -18 41 -9 9
-22 35 -27 57 -14 54 -45 62 -45 11z"/>
<path d="M9710 3050 c0 -28 2 -30 20 -20 11 6 20 20 20 30 0 13 -7 20 -20 20
-16 0 -20 -7 -20 -30z"/>
<path d="M9677 2993 c-4 -3 -7 -17 -7 -30 0 -21 3 -22 20 -13 22 12 27 50 7
50 -8 0 -17 -3 -20 -7z"/>
<path d="M9630 2885 c0 -23 2 -24 20 -15 11 6 20 17 20 25 0 8 -9 15 -20 15
-15 0 -20 -7 -20 -25z"/>
<path d="M9590 2805 c0 -23 2 -24 20 -15 11 6 20 17 20 25 0 8 -9 15 -20 15
-15 0 -20 -7 -20 -25z"/>
<path d="M9546 2733 c-11 -26 13 -42 29 -19 8 10 12 23 9 27 -9 15 -31 10 -38
-8z"/>
<path d="M9507 2663 c-4 -3 -7 -17 -7 -30 0 -21 3 -22 20 -13 22 12 27 50 7
50 -8 0 -17 -3 -20 -7z"/>
<path d="M700 2610 c0 -10 9 -24 20 -30 21 -11 27 1 14 34 -9 23 -34 20 -34
-4z"/>
<path d="M9464 2583 c-3 -10 -10 -25 -15 -33 -32 -51 -21 -63 21 -22 32 32 40
72 15 72 -9 0 -18 -8 -21 -17z"/>
<path d="M740 2538 c1 -24 55 -86 66 -75 7 7 3 17 -24 61 -23 38 -42 45 -42
14z"/>
<path d="M9393 2463 c-7 -2 -13 -12 -13 -22 0 -9 -7 -26 -15 -37 -24 -32 -17
-41 10 -11 14 15 30 27 35 27 6 0 10 11 10 25 0 25 -4 28 -27 18z"/>
<path d="M821 2408 c0 -13 15 -35 35 -51 31 -27 34 -27 34 -9 0 11 -6 22 -14
25 -8 3 -16 16 -18 29 -4 32 -38 37 -37 6z"/>
<path d="M9299 2310 c-6 -16 -15 -30 -20 -30 -5 0 -9 -7 -9 -16 0 -12 10 -7
35 17 37 36 45 59 19 59 -8 0 -20 -13 -25 -30z"/>
<path d="M900 2285 c0 -15 58 -74 73 -75 14 0 7 26 -13 43 -11 9 -20 24 -20
32 0 8 -9 15 -20 15 -11 0 -20 -7 -20 -15z"/>
<path d="M9214 2196 c-3 -14 -12 -27 -20 -30 -14 -6 -20 -36 -6 -36 14 0 72
61 72 76 0 25 -39 16 -46 -10z"/>
<path d="M980 2171 c0 -24 113 -138 119 -120 2 7 -3 17 -11 23 -8 6 -18 21
-22 33 -4 11 -13 24 -21 27 -8 3 -15 12 -15 20 0 9 -9 20 -19 26 -27 14 -31
13 -31 -9z"/>
<path d="M9153 2110 c-13 -5 -23 -15 -23 -21 0 -6 -18 -33 -40 -59 -22 -26
-40 -53 -40 -59 0 -6 -4 -11 -10 -11 -10 0 -34 -39 -27 -46 2 -2 39 31 82 73
57 57 79 85 80 105 1 16 1 28 1 27 -1 0 -11 -4 -23 -9z"/>
<path d="M1110 2001 c0 -15 181 -211 195 -211 8 0 -8 33 -24 50 -9 10 -32 37
-51 61 -19 23 -43 51 -52 60 -9 10 -21 27 -28 38 -13 26 -40 27 -40 2z"/>
<path d="M8930 1841 c0 -4 -12 -21 -26 -37 -84 -93 -185 -202 -227 -242 -82
-79 -174 -165 -222 -207 -72 -63 -75 -66 -75 -76 0 -5 9 -9 19 -9 23 0 571
544 571 566 0 8 -9 14 -20 14 -11 0 -20 -4 -20 -9z"/>
<path d="M1350 1720 c0 -25 265 -290 291 -290 29 0 12 29 -51 86 -30 27 -89
85 -130 129 -82 88 -110 107 -110 75z"/>
<path d="M1720 1375 c0 -14 186 -185 201 -185 28 0 23 29 -6 40 -14 5 -28 17
-31 25 -4 8 -12 15 -20 15 -7 0 -17 6 -21 14 -8 14 -108 96 -118 96 -3 0 -5
-2 -5 -5z"/>
<path d="M8261 1190 c-28 -22 -55 -40 -60 -40 -8 0 -21 -23 -21 -36 0 -2 9 -4
19 -4 17 0 78 53 120 103 24 30 -6 18 -58 -23z"/>
<path d="M1970 1166 c0 -3 32 -36 71 -75 45 -44 80 -71 93 -71 12 0 39 -18 61
-40 21 -22 47 -40 58 -40 28 0 17 32 -16 48 -15 7 -27 17 -27 23 0 5 -11 9
-25 9 -18 0 -28 7 -35 25 -5 14 -16 25 -23 25 -8 0 -22 9 -32 20 -10 11 -24
20 -32 20 -7 0 -13 4 -13 9 0 5 -16 18 -36 30 -36 21 -44 24 -44 17z"/>
<path d="M8095 1062 c-22 -16 -47 -31 -56 -34 -9 -4 -19 -16 -22 -27 -10 -38
26 -23 83 34 59 60 57 70 -5 27z"/>
<path d="M7950 960 c-6 -11 -19 -20 -29 -20 -10 0 -21 -9 -24 -20 -8 -32 23
-24 61 14 26 27 29 35 17 39 -9 4 -19 -2 -25 -13z"/>
<path d="M2290 934 c0 -4 15 -22 33 -40 37 -39 78 -47 70 -14 -3 11 -11 20
-18 20 -7 0 -24 9 -38 20 -25 20 -47 26 -47 14z"/>
<path d="M7830 881 c0 -5 -13 -14 -30 -20 -16 -5 -30 -17 -30 -25 0 -27 33
-17 69 19 31 32 32 35 12 35 -11 0 -21 -4 -21 -9z"/>
<path d="M2412 848 c6 -16 36 -34 44 -26 3 4 4 14 1 23 -7 17 -51 21 -45 3z"/>
<path d="M7705 800 c-10 -11 -26 -20 -36 -20 -10 0 -23 -9 -29 -20 -6 -11 -21
-20 -33 -20 -23 0 -47 -17 -47 -32 0 -17 50 -7 60 12 6 12 21 20 36 20 31 0
92 56 77 71 -6 6 -16 2 -28 -11z"/>
<path d="M2500 804 c0 -15 61 -64 80 -64 18 0 19 3 10 20 -6 11 -20 20 -31 20
-11 0 -22 7 -25 15 -6 14 -34 22 -34 9z"/>
<path d="M2625 730 c-9 -15 4 -30 26 -30 23 0 26 25 3 34 -21 8 -22 8 -29 -4z"/>
<path d="M7497 693 c-14 -13 -6 -33 12 -33 25 0 38 20 20 31 -17 11 -24 11
-32 2z"/>
<path d="M2700 685 c0 -4 15 -22 34 -40 21 -22 42 -35 59 -35 16 0 30 -8 37
-20 7 -13 21 -20 40 -20 19 0 33 -7 40 -20 7 -13 21 -20 40 -20 19 0 33 -7 40
-20 7 -13 21 -20 40 -20 19 0 34 -7 42 -20 16 -26 84 -29 74 -4 -3 9 -6 17 -6
19 0 2 -16 7 -36 11 -20 4 -45 15 -55 25 -11 11 -29 19 -42 19 -12 0 -30 9
-40 20 -10 12 -29 20 -47 20 -19 0 -30 5 -30 14 0 15 -21 26 -49 26 -9 0 -24
9 -34 20 -9 11 -26 20 -37 20 -11 0 -23 7 -26 15 -6 14 -44 22 -44 10z"/>
<path d="M7410 630 c0 -24 13 -26 34 -4 21 21 20 24 -9 24 -18 0 -25 -5 -25
-20z"/>
<path d="M7337 603 c-4 -3 -7 -12 -7 -20 0 -20 28 -15 40 7 9 17 8 20 -8 20
-10 0 -22 -3 -25 -7z"/>
<path d="M7247 549 c-4 -16 -1 -20 16 -17 12 2 23 11 25 21 5 25 -34 22 -41
-4z"/>
<path d="M7167 523 c-16 -15 -6 -34 15 -31 29 4 38 38 10 38 -10 0 -22 -3 -25
-7z"/>
<path d="M7076 474 c-9 -23 -8 -24 18 -24 20 0 36 16 36 36 0 12 -49 2 -54
-12z"/>
<path d="M3198 444 c-13 -13 5 -34 29 -34 18 0 24 5 21 18 -3 17 -38 29 -50
16z"/>
<path d="M6977 430 c-10 -12 -29 -20 -46 -20 -16 0 -37 -8 -47 -17 -17 -17
-16 -18 21 -21 31 -3 44 1 56 17 10 12 28 21 41 21 24 0 48 16 48 32 0 17 -56
7 -73 -12z"/>
<path d="M3270 402 c0 -17 25 -32 52 -32 30 0 35 9 16 28 -13 13 -68 17 -68 4z"/>
<path d="M3405 360 c-10 -17 5 -30 35 -30 19 0 33 -7 40 -20 8 -15 21 -20 55
-20 25 0 45 4 45 10 0 15 -36 30 -74 30 -25 0 -38 6 -46 20 -11 21 -44 27 -55
10z"/>
<path d="M6770 349 c-11 -19 -9 -20 27 -17 27 2 39 8 41 21 5 26 -54 24 -68
-4z"/>
<path d="M6654 313 c-17 -17 -16 -18 15 -21 36 -4 58 9 47 27 -11 17 -42 13
-62 -6z"/>
<path d="M3602 270 c10 -15 24 -20 60 -20 27 0 48 5 48 10 0 15 -45 30 -86 30
-32 0 -33 -1 -22 -20z"/>
<path d="M6532 278 c-20 -20 -14 -28 22 -28 36 0 56 24 30 34 -24 9 -39 7 -52
-6z"/>
<path d="M3772 241 c-11 -6 -10 -11 3 -25 19 -18 43 -20 65 -6 13 9 12 12 -4
25 -22 17 -44 19 -64 6z"/>
<path d="M6392 234 c-33 -23 -27 -32 23 -30 44 1 71 19 59 38 -9 14 -58 9 -82
-8z"/>
<path d="M3890 198 c0 -27 24 -38 84 -38 60 0 60 0 40 20 -26 26 -124 41 -124
18z"/>
<path d="M6245 200 c-12 -4 -27 -15 -34 -24 -12 -14 -9 -16 32 -16 50 0 83 24
56 41 -17 10 -27 10 -54 -1z"/>
<path d="M4103 162 c-10 -7 -10 -12 0 -26 10 -13 24 -17 67 -14 55 3 55 3 30
20 -31 20 -81 31 -97 20z"/>
<path d="M6069 163 c-15 -2 -35 -13 -45 -24 -17 -19 -16 -19 44 -19 50 0 63 4
71 19 8 15 7 20 -5 25 -16 6 -19 6 -65 -1z"/>
<path d="M4312 122 c-7 -5 -10 -16 -6 -25 5 -14 20 -17 78 -17 71 1 71 1 47
20 -13 11 -33 20 -45 20 -11 0 -30 3 -41 5 -11 3 -26 1 -33 -3z"/>
<path d="M5847 121 c-26 -4 -55 -15 -64 -24 -16 -16 -13 -17 62 -17 68 0 82 3
92 19 10 16 9 20 -10 25 -12 3 -24 5 -27 5 -3 -1 -26 -5 -53 -8z"/>
<path d="M4549 80 c-10 -7 -10 -11 0 -24 11 -13 38 -16 153 -16 122 0 139 2
128 15 -6 7 -30 16 -53 19 -84 10 -215 13 -228 6z"/>
<path d="M5509 80 c-64 -4 -103 -12 -119 -23 -23 -16 -19 -17 112 -17 124 0
138 2 147 19 9 15 7 20 -12 25 -12 3 -24 5 -27 4 -3 0 -48 -4 -101 -8z"/>
</g></svg>