<svg xmlns="http://www.w3.org/2000/svg" viewBox="0 0 1024.000000 1024.000000"><style>.d{fill:#000}.m{fill:#fff}@media(prefers-color-scheme:dark){.d{fill:#fff}.m{fill:#000}}</style><circle class="d" cx="512" cy="512" r="512"/><g class="m" transform="translate(0.000000,1024.000000) scale(0.100000,-0.100000)" stroke="none">
<path d="M0 5120 l0 -5120 5120 0 5120 0 0 5120 0 5120 -5120 0 -5120 0 0
-5120z m5478 5050 c92 -6 196 -16 232 -21 36 -6 99 -15 140 -20 41 -5 113 -19
160 -29 47 -11 96 -20 110 -20 14 0 57 -9 95 -19 39 -11 90 -24 115 -30 62
-14 127 -31 180 -48 25 -7 69 -20 99 -29 30 -8 60 -19 65 -23 6 -5 27 -12 46
-16 19 -4 48 -13 65 -20 16 -7 57 -23 90 -35 72 -27 165 -65 220 -90 72 -32
409 -202 450 -226 22 -13 54 -31 70 -39 17 -9 50 -29 75 -45 25 -16 52 -33 60
-37 14 -7 154 -101 250 -168 384 -270 792 -667 1076 -1047 43 -57 89 -119 104
-138 161 -215 428 -689 545 -970 15 -36 33 -78 41 -95 7 -16 20 -48 28 -70 8
-22 26 -71 41 -110 14 -38 32 -90 40 -115 7 -25 18 -58 24 -75 6 -16 22 -70
36 -120 14 -49 35 -119 46 -155 10 -36 19 -75 19 -88 0 -12 7 -39 15 -58 8
-20 19 -68 25 -107 5 -40 16 -97 25 -127 8 -30 15 -75 15 -100 0 -25 7 -74 16
-110 8 -36 19 -126 24 -200 5 -74 14 -178 20 -230 12 -120 13 -436 0 -555 -5
-49 -14 -155 -20 -235 -5 -80 -17 -170 -25 -200 -8 -30 -15 -73 -15 -95 1 -36
-9 -84 -57 -285 -8 -36 -21 -92 -27 -125 -7 -33 -17 -69 -23 -80 -6 -11 -13
-38 -17 -60 -4 -22 -13 -56 -20 -75 -16 -38 -40 -109 -62 -180 -27 -88 -56
-164 -70 -184 -8 -11 -14 -29 -14 -39 0 -10 -6 -31 -14 -45 -8 -15 -26 -54
-41 -87 -66 -145 -162 -338 -216 -432 -33 -56 -59 -105 -59 -108 0 -3 -8 -18
-19 -33 -10 -15 -64 -96 -120 -181 -108 -162 -124 -184 -292 -394 -237 -295
-640 -683 -894 -861 -22 -15 -65 -45 -95 -67 -51 -38 -242 -164 -320 -214 -55
-34 -169 -100 -235 -134 -33 -18 -67 -36 -75 -41 -8 -6 -26 -14 -40 -20 -14
-5 -32 -14 -40 -20 -8 -5 -26 -14 -40 -20 -14 -5 -32 -14 -40 -19 -8 -5 -42
-22 -75 -37 -56 -25 -79 -35 -187 -83 -24 -10 -69 -28 -101 -39 -31 -12 -81
-30 -110 -41 -28 -11 -65 -23 -82 -27 -16 -4 -39 -13 -50 -20 -11 -8 -29 -14
-40 -14 -11 -1 -38 -8 -60 -16 -22 -9 -65 -22 -95 -30 -61 -15 -148 -38 -225
-59 -27 -8 -79 -19 -115 -25 -36 -5 -90 -16 -120 -25 -30 -8 -68 -15 -86 -15
-17 0 -73 -9 -125 -20 -52 -11 -116 -20 -144 -20 -27 0 -117 -7 -200 -15 -82
-8 -224 -15 -315 -15 -162 0 -496 21 -615 40 -33 5 -91 14 -130 20 -78 12
-226 42 -325 66 -36 9 -92 22 -125 30 -67 14 -184 47 -230 63 -46 16 -125 41
-178 56 -26 7 -53 18 -60 23 -7 5 -28 13 -47 17 -19 4 -51 16 -70 26 -19 11
-40 19 -47 19 -7 0 -30 9 -50 20 -21 11 -44 20 -51 20 -7 0 -30 9 -50 20 -20
11 -102 51 -182 90 -80 39 -152 75 -160 80 -13 8 -228 131 -298 170 -49 28
-251 161 -340 224 -101 73 -348 272 -448 361 -389 349 -756 802 -999 1232 -36
65 -70 125 -75 133 -4 8 -31 60 -58 115 -48 96 -75 153 -122 260 -12 28 -28
62 -36 77 -8 14 -14 32 -14 40 0 7 -7 27 -16 43 -9 17 -22 50 -29 75 -19 65
-45 141 -58 170 -12 27 -40 124 -62 210 -8 30 -21 73 -29 95 -8 22 -15 55 -16
73 0 18 -7 49 -15 69 -8 20 -18 61 -21 92 -3 31 -12 76 -20 101 -8 25 -18 90
-24 145 -5 55 -16 132 -25 170 -36 165 -29 1033 10 1205 8 36 15 88 15 115 0
28 9 83 20 124 11 41 20 91 20 110 0 20 8 65 19 101 11 36 24 88 29 115 12 59
29 123 49 185 8 25 20 70 28 100 16 66 40 138 66 202 10 26 19 56 19 67 0 11
4 23 10 26 5 3 16 27 24 53 8 26 21 61 30 77 9 17 16 37 16 45 0 9 6 24 14 35
7 11 17 31 21 45 4 14 25 61 46 105 21 44 42 91 48 105 6 14 15 32 21 40 5 8
15 26 20 40 6 14 30 61 54 105 25 44 59 106 75 138 17 32 40 70 50 85 30 44
87 135 105 167 9 17 31 50 49 75 17 25 59 83 92 129 197 280 509 624 770 850
54 47 107 93 116 102 39 39 263 204 396 293 147 99 168 112 238 152 37 22 83
49 103 60 44 26 358 184 422 212 118 53 182 78 325 131 135 50 370 121 480
145 33 7 84 21 114 30 30 9 68 16 85 16 17 0 63 9 101 20 38 11 86 20 105 20
19 0 89 9 155 20 273 45 630 56 1023 30z"/>
<path d="M5478 9450 c-37 -5 -71 -11 -77 -14 -5 -3 -51 -10 -103 -16 -52 -5
-110 -16 -129 -23 -19 -8 -58 -18 -88 -21 -30 -4 -63 -12 -73 -17 -10 -6 -51
-16 -91 -24 -112 -21 -187 -36 -247 -52 -174 -45 -202 -54 -362 -127 -31 -14
-59 -26 -63 -26 -3 0 -35 -18 -71 -40 -36 -22 -68 -40 -71 -40 -2 0 -41 -25
-86 -56 -188 -130 -337 -279 -449 -449 -64 -97 -168 -301 -168 -329 0 -9 -9
-34 -20 -56 -11 -22 -20 -48 -20 -58 0 -11 -10 -48 -21 -83 -20 -59 -22 -84
-22 -329 0 -244 2 -270 22 -329 11 -35 21 -75 21 -90 0 -14 9 -46 20 -70 11
-24 20 -50 20 -58 0 -15 10 -39 61 -150 16 -34 29 -64 29 -67 0 -7 106 -193
138 -241 121 -182 224 -301 566 -656 72 -74 171 -182 220 -240 50 -57 100
-115 113 -127 13 -13 22 -29 21 -34 -5 -13 -134 -58 -168 -58 -14 0 -43 -9
-66 -19 -23 -10 -60 -22 -83 -26 -22 -4 -43 -10 -46 -15 -3 -4 -29 -14 -57
-21 -29 -6 -62 -18 -73 -25 -11 -7 -37 -16 -58 -19 -20 -4 -39 -11 -42 -15 -3
-5 -22 -14 -43 -20 -33 -11 -68 -25 -157 -65 -256 -113 -503 -260 -621 -367
-53 -49 -84 -112 -84 -167 1 -44 42 -114 85 -143 58 -39 112 -45 189 -19 34
11 69 21 77 21 8 0 31 9 52 20 20 11 42 20 48 20 7 0 33 9 58 21 25 12 64 29
86 39 22 11 60 28 85 38 25 11 71 32 102 46 31 14 61 26 67 26 5 0 22 7 38 15
32 17 121 53 205 84 52 20 80 30 198 71 45 16 154 48 205 62 22 6 60 17 85 25
25 8 77 20 115 28 39 7 79 16 91 20 17 5 26 -1 45 -32 55 -89 199 -374 199
-394 0 -8 6 -24 14 -35 17 -23 52 -120 67 -179 5 -22 16 -56 23 -75 21 -52 55
-206 62 -280 3 -36 12 -103 20 -149 18 -108 18 -331 0 -446 -8 -49 -18 -126
-22 -170 -4 -44 -12 -96 -19 -115 -7 -20 -16 -60 -20 -90 -4 -30 -13 -66 -20
-80 -7 -14 -18 -48 -24 -75 -10 -53 -42 -149 -67 -202 -7 -17 -14 -36 -14 -42
0 -12 -109 -237 -155 -320 -31 -55 -44 -71 -60 -71 -7 0 -99 88 -206 196 -191
194 -372 358 -457 415 -24 16 -45 29 -47 29 -2 0 -21 11 -41 25 -32 21 -109
60 -239 120 -16 8 -43 17 -60 20 -16 4 -46 13 -65 21 -19 7 -60 18 -90 23 -30
5 -75 15 -100 22 -60 16 -391 16 -445 0 -22 -6 -71 -18 -110 -26 -107 -21
-162 -40 -290 -101 -99 -48 -218 -135 -282 -208 -50 -57 -128 -173 -138 -206
-4 -14 -12 -30 -17 -37 -45 -57 -74 -362 -45 -478 9 -33 20 -78 26 -100 29
-116 101 -259 182 -361 66 -83 181 -190 264 -245 76 -51 264 -149 284 -149 7
0 25 -6 39 -14 37 -20 192 -66 221 -66 13 0 51 -8 85 -17 87 -25 509 -26 606
-1 36 9 87 20 115 23 27 4 61 13 75 20 14 7 43 16 65 19 22 4 49 13 60 20 11
7 32 16 47 20 66 16 342 160 369 192 6 8 16 14 21 14 11 0 99 64 162 119 27
24 53 38 59 34 17 -10 171 -127 177 -134 8 -10 251 -172 300 -201 173 -100
480 -228 546 -228 12 0 50 -9 85 -21 57 -19 88 -21 274 -21 188 0 217 2 274
21 35 11 70 21 78 21 8 0 29 6 46 14 18 8 61 27 97 42 36 15 77 36 92 46 14
10 30 18 34 18 13 0 83 49 200 142 276 217 525 543 684 893 12 28 31 67 41 87
11 20 19 43 19 49 0 7 8 31 18 53 27 62 52 136 63 186 5 25 15 61 23 80 7 19
17 60 21 90 4 30 13 78 21 106 34 122 34 623 0 746 -8 29 -18 78 -21 108 -4
30 -13 69 -20 86 -7 17 -16 51 -20 75 -4 24 -13 55 -20 69 -8 14 -20 45 -28
70 -41 125 -102 263 -190 425 -118 216 -336 478 -539 648 -79 66 -277 199
-363 243 -109 57 -106 56 -258 123 -26 11 -55 21 -65 21 -9 1 -35 9 -57 20
-22 11 -49 19 -60 20 -12 0 -46 9 -78 20 -31 11 -70 20 -87 20 -17 0 -70 9
-118 19 -143 32 -426 42 -702 27 -129 -8 -243 -17 -253 -21 -23 -10 -34 0
-151 144 -55 69 -197 233 -315 366 -281 316 -429 500 -503 625 -18 30 -42 69
-53 86 -12 18 -45 78 -73 135 -47 96 -62 130 -91 217 -6 17 -16 47 -22 65 -56
162 -75 411 -43 572 25 133 75 281 115 345 5 8 13 25 19 38 22 50 122 172 199
243 107 97 173 138 371 234 35 16 177 59 287 85 78 19 120 22 296 22 212 0
214 0 392 -52 60 -17 130 -43 141 -52 6 -4 33 -20 60 -34 123 -65 250 -182
329 -304 64 -99 145 -265 145 -296 0 -8 9 -31 20 -51 11 -21 20 -47 20 -58 0
-11 9 -46 20 -78 11 -31 20 -69 20 -85 0 -16 7 -51 15 -78 8 -27 20 -91 25
-143 6 -51 17 -120 25 -151 8 -32 15 -75 15 -95 0 -21 10 -55 22 -76 39 -71
97 -63 142 18 30 53 76 163 76 181 0 7 9 38 20 69 37 109 52 395 30 588 -17
144 -65 307 -125 419 -14 27 -24 51 -21 53 2 2 21 0 43 -6 60 -17 143 -13 211
10 103 35 102 67 -2 110 -110 45 -465 227 -497 255 -8 8 -20 14 -25 14 -5 0
-34 17 -65 39 -31 21 -66 42 -77 45 -27 9 -28 27 -2 51 13 12 20 31 20 57 0
72 -103 158 -225 188 -122 30 -283 38 -437 20z m254 -4195 c100 -9 194 -20
208 -26 14 -6 57 -17 95 -25 114 -21 234 -64 380 -136 114 -56 111 -54 224
-127 228 -147 456 -387 601 -631 88 -149 181 -356 212 -475 6 -22 19 -66 29
-98 11 -31 19 -70 19 -85 0 -16 8 -53 18 -83 14 -45 17 -93 17 -299 0 -205 -3
-254 -17 -302 -10 -31 -18 -69 -18 -85 -1 -15 -8 -46 -16 -68 -8 -22 -21 -62
-28 -90 -25 -95 -124 -314 -188 -415 -8 -14 -33 -53 -54 -88 -96 -156 -278
-358 -417 -463 -133 -100 -240 -149 -397 -179 -105 -20 -105 -20 -235 4 -132
25 -190 41 -280 78 -101 43 -149 68 -302 157 -97 56 -337 241 -347 266 -8 20
-3 34 32 82 53 74 170 277 178 308 3 13 12 29 20 36 8 6 14 16 14 22 0 6 9 29
19 51 48 103 71 160 71 172 0 8 9 31 20 51 11 21 20 47 20 59 0 12 9 41 20 65
11 24 20 55 20 69 1 14 8 43 16 65 9 22 20 68 25 103 4 35 15 87 23 115 8 29
20 102 26 162 6 61 15 139 20 175 11 84 12 346 0 430 -4 36 -15 122 -23 191
-8 69 -19 135 -25 146 -6 11 -14 44 -17 74 -4 30 -15 78 -26 107 -10 29 -19
60 -19 70 -1 9 -9 35 -20 57 -11 22 -19 48 -20 57 0 10 -10 39 -21 65 -45 102
-58 130 -82 183 -29 65 -73 155 -92 190 -26 49 -23 64 15 71 59 11 111 10 302
-6z m-2267 -2379 c67 -7 135 -21 152 -30 18 -9 39 -16 48 -16 14 0 95 -37 135
-61 8 -5 31 -18 51 -29 78 -42 263 -206 484 -428 127 -128 230 -236 230 -241
0 -17 -173 -144 -275 -200 -132 -74 -295 -137 -395 -152 -33 -5 -76 -14 -95
-19 -62 -18 -192 -22 -260 -10 -36 7 -96 18 -135 25 -38 6 -86 19 -105 27 -19
9 -60 26 -90 39 -30 13 -89 45 -130 72 -198 130 -316 295 -355 493 -18 89 -18
92 3 172 23 91 59 150 128 210 53 47 145 102 172 102 9 0 28 7 41 16 15 11 66
21 144 29 67 7 124 13 127 14 3 0 59 -5 125 -13z"/>
</g></svg>