<svg xmlns="http://www.w3.org/2000/svg" viewBox="0 0 1024.000000 1024.000000"><circle cx="512" cy="512" r="512" fill="#000"/><g transform="translate(0.000000,1024.000000) scale(0.100000,-0.100000)"
fill="#ffffff" stroke="none">
<path d="M5315 9334 c-22 -3 -74 -11 -115 -19 -41 -7 -99 -17 -127 -20 -47 -6
-53 -9 -53 -31 0 -30 -36 -40 -175 -49 -55 -4 -139 -15 -187 -26 -48 -10 -100
-19 -114 -19 -14 0 -40 -7 -57 -15 -18 -8 -50 -19 -72 -24 -52 -12 -129 -39
-180 -61 -22 -10 -51 -23 -65 -29 -49 -20 -172 -91 -253 -145 -144 -97 -280
-235 -380 -388 -49 -75 -137 -245 -137 -267 -1 -9 -9 -34 -20 -56 -11 -22 -19
-54 -20 -71 0 -17 -7 -48 -15 -68 -9 -20 -21 -97 -27 -170 -13 -151 -1 -389
27 -516 26 -120 93 -337 121 -390 7 -14 25 -54 41 -90 103 -241 344 -576 604
-840 257 -262 393 -405 454 -480 38 -47 77 -93 87 -103 10 -10 18 -24 18 -31
0 -19 -47 -48 -90 -57 -19 -3 -64 -17 -100 -29 -36 -12 -78 -26 -95 -32 -16
-5 -52 -19 -80 -30 -27 -11 -68 -27 -90 -35 -39 -14 -82 -33 -211 -94 -34 -16
-66 -29 -71 -29 -6 0 -18 -9 -28 -20 -10 -11 -25 -20 -34 -20 -9 0 -27 -7 -40
-17 -13 -9 -44 -27 -70 -40 -74 -39 -352 -228 -398 -271 -43 -40 -54 -68 -30
-78 25 -9 209 32 272 61 17 7 125 59 240 115 116 56 235 113 265 127 30 14 73
33 95 43 22 11 67 29 100 41 33 12 80 29 105 39 82 31 144 51 207 65 34 8 70
18 80 23 10 6 42 12 72 14 59 3 51 14 207 -305 13 -26 41 -99 73 -187 43 -118
107 -373 115 -461 3 -31 13 -76 22 -100 33 -94 33 -948 -1 -999 -5 -8 -11 -33
-11 -55 -3 -70 -22 -206 -32 -218 -5 -7 -12 -36 -15 -66 -7 -59 -38 -161 -68
-226 -11 -22 -19 -50 -19 -63 0 -12 -9 -40 -20 -62 -11 -22 -20 -46 -20 -55 0
-9 -9 -33 -20 -53 -11 -20 -42 -86 -70 -146 -28 -60 -67 -131 -86 -158 -19
-28 -34 -55 -34 -60 0 -23 -31 2 -79 62 -214 267 -519 550 -665 616 -17 8 -53
28 -81 44 -27 16 -57 29 -65 29 -8 1 -28 8 -45 17 -119 62 -382 97 -563 75
-353 -43 -635 -270 -732 -588 -20 -65 -22 -89 -18 -220 3 -115 8 -155 21 -180
9 -18 17 -40 17 -50 0 -21 65 -152 110 -221 43 -67 200 -217 287 -275 231
-153 463 -227 718 -227 101 0 160 5 228 20 93 21 234 63 265 79 9 5 44 22 77
37 155 73 381 248 470 366 21 26 44 48 52 48 8 0 47 -31 87 -69 73 -70 274
-236 336 -277 19 -13 54 -37 78 -54 23 -16 45 -30 48 -30 3 0 18 -8 32 -19 15
-10 75 -44 134 -74 144 -75 278 -127 393 -151 33 -7 80 -19 105 -27 29 -8 102
-13 200 -13 192 -1 243 11 447 106 68 32 216 131 303 203 141 118 312 313 415
475 26 41 56 87 66 102 10 15 32 53 49 85 17 32 42 78 56 103 14 25 31 59 36
75 6 17 16 37 23 45 6 8 24 49 39 90 15 41 34 89 42 105 16 37 42 108 55 155
6 19 19 64 29 100 28 97 57 241 76 370 20 139 30 496 16 600 -24 171 -43 287
-53 311 -6 15 -16 53 -24 85 -24 103 -64 230 -96 299 -10 22 -31 69 -46 105
-36 86 -140 265 -211 366 -121 172 -284 338 -461 471 -31 23 -77 58 -102 78
-26 19 -55 38 -65 41 -11 4 -26 13 -34 20 -9 7 -41 27 -73 44 -31 16 -83 44
-114 61 -63 33 -82 40 -307 118 -112 39 -160 51 -194 49 -25 -2 -47 -8 -49
-14 -4 -11 107 -61 197 -89 30 -9 72 -25 92 -36 20 -10 43 -19 50 -19 7 0 29
-10 48 -23 19 -13 56 -31 82 -41 25 -9 52 -24 59 -32 7 -8 26 -22 43 -30 64
-30 86 -46 96 -65 15 -27 -10 -35 -47 -15 -27 15 -52 27 -178 85 -144 67 -381
137 -540 160 -38 6 -99 16 -135 22 -42 8 -151 12 -310 11 -247 -1 -290 -3
-434 -21 -43 -5 -84 -7 -92 -4 -12 4 -49 49 -182 219 -23 30 -163 190 -307
353 -67 75 -151 174 -187 221 -37 47 -80 101 -97 121 -28 32 -104 141 -174
249 -16 25 -38 57 -48 72 -28 40 -189 356 -189 370 0 7 -7 27 -16 43 -9 17
-29 73 -45 125 -16 52 -37 117 -45 144 -9 27 -20 97 -25 155 -5 58 -14 115
-20 127 -7 13 -9 68 -6 145 7 184 41 367 88 464 10 22 19 45 19 50 0 16 48
103 98 180 61 93 199 230 290 289 85 55 253 141 297 152 17 4 39 13 50 20 11
8 32 14 48 14 15 0 42 8 60 17 18 9 64 22 102 29 39 7 111 19 160 28 103 18
425 22 515 6 224 -39 373 -90 557 -190 38 -20 104 -70 126 -95 68 -76 178
-270 226 -397 55 -150 101 -290 101 -310 0 -10 9 -44 19 -75 11 -32 22 -80 25
-107 3 -27 13 -72 20 -100 8 -28 20 -98 26 -156 21 -205 43 -262 88 -234 9 6
18 20 20 30 2 10 11 48 22 84 41 144 60 463 36 619 -9 58 -16 122 -16 143 0
22 -6 51 -14 66 -8 15 -19 53 -25 84 -5 32 -17 71 -26 87 -8 17 -15 38 -15 47
0 9 -14 39 -31 66 -16 28 -28 53 -25 56 3 3 23 0 45 -6 82 -25 201 -2 201 39
0 12 -7 19 -20 19 -28 0 -157 70 -410 220 -8 5 -44 26 -79 47 -106 62 -114 68
-158 96 -24 15 -43 30 -43 33 0 4 10 22 21 41 39 63 0 103 -151 150 -79 24
-99 26 -295 29 -115 1 -228 0 -250 -2z m-68 -100 c-3 -3 -12 -4 -19 -1 -8 3
-5 6 6 6 11 1 17 -2 13 -5z m411 -3958 c51 -2 105 -9 120 -14 15 -6 61 -12
102 -15 41 -2 98 -11 125 -20 28 -9 96 -31 152 -48 57 -17 105 -34 108 -39 3
-4 20 -11 39 -14 42 -8 288 -129 306 -151 7 -8 16 -15 21 -15 5 0 42 -23 82
-52 308 -223 528 -491 680 -828 42 -94 52 -122 81 -215 15 -49 34 -110 42
-135 9 -25 20 -72 25 -105 5 -33 14 -76 20 -95 16 -50 23 -536 10 -640 -23
-184 -34 -247 -52 -292 -11 -26 -19 -58 -19 -73 0 -14 -8 -42 -19 -63 -10 -20
-21 -59 -25 -86 -3 -27 -13 -60 -21 -72 -8 -13 -15 -29 -15 -35 0 -7 -9 -31
-19 -53 -11 -23 -33 -75 -51 -116 -93 -224 -267 -483 -447 -667 -193 -196
-385 -311 -558 -334 -171 -23 -339 5 -565 94 -146 58 -411 209 -472 269 -10
10 -50 42 -90 71 -40 30 -127 108 -193 173 -140 140 -151 152 -142 161 4 3 13
-1 20 -11 26 -36 57 -16 99 64 22 41 48 84 57 95 9 11 44 76 78 145 88 181
103 216 103 231 0 8 6 23 13 34 7 11 26 61 41 110 15 50 36 113 45 140 24 68
71 266 71 299 0 15 5 37 12 49 6 12 17 82 24 157 7 74 17 169 23 210 19 145
23 303 11 440 -7 74 -14 153 -16 175 -10 110 -23 207 -33 237 -5 18 -17 77
-26 131 -8 55 -20 108 -26 119 -6 10 -14 40 -19 66 -5 26 -16 70 -25 97 -33
98 -37 111 -55 170 -10 33 -41 110 -70 170 -28 61 -66 139 -82 174 -43 90 -38
95 101 102 61 3 114 8 117 11 5 5 84 4 312 -6z m1117 -105 c48 -26 104 -81 82
-81 -9 0 -17 4 -17 10 0 5 -12 13 -27 16 -16 4 -41 18 -56 31 -16 12 -33 23
-38 23 -5 0 -9 5 -9 10 0 15 27 12 65 -9z m-3250 -2546 c55 -8 123 -22 150
-32 53 -20 197 -90 256 -126 126 -78 302 -232 449 -393 191 -209 239 -262 268
-293 37 -39 39 -49 15 -58 -10 -3 -31 -21 -48 -39 -120 -131 -427 -333 -507
-334 -13 0 -43 -10 -68 -21 -41 -20 -62 -22 -241 -21 -173 0 -204 2 -270 22
-340 102 -572 289 -695 560 -47 105 -47 105 -48 220 -1 101 2 122 24 175 65
158 136 226 325 311 92 41 234 51 390 29z"/>
</g></svg>