<svg xmlns="http://www.w3.org/2000/svg" viewBox="0 0 900 417" width="900" height="417" role="img" aria-label="Upper panel: the 286 pages of Jones's Glitch Poetics with every occurrence of 'generative' and of 'unknowing' marked; the two never come within about 42 pages of each other. Lower panel: the phrase 'generative unknowing' occurs zero times in the book, zero times in the review's body prose, three times as the review's title, and 74 times across 31 files of this repository."><rect width="900" height="417" fill="#f4f1ea"/><text x="190" y="34" font-family="Georgia,serif" font-size="17" fill="#1a1a1a">Two words that never meet</text><text x="190" y="56" font-family="Georgia,serif" font-size="12.5" fill="#5a544c">Jones, &#8216;Glitch Poetics&#8217; (2022), 286 pages, 64,795 words &#183; every occurrence of each word</text><line x1="190.0" y1="92.0" x2="840.0" y2="92.0" stroke="#c9c4bb" stroke-width="1"/><text x="178.0" y="96.0" text-anchor="end" font-family="Georgia,serif" font-size="13" font-style="italic" fill="#5b6b7a">generative</text><text x="848.0" y="96.0" font-family="Georgia,serif" font-size="11.5" fill="#5b6b7a">10</text><line x1="428.0" y1="81.0" x2="428.0" y2="103.0" stroke="#5b6b7a" stroke-width="2"/><line x1="429.4" y1="81.0" x2="429.4" y2="103.0" stroke="#5b6b7a" stroke-width="2"/><line x1="432.0" y1="81.0" x2="432.0" y2="103.0" stroke="#5b6b7a" stroke-width="2"/><line x1="433.4" y1="81.0" x2="433.4" y2="103.0" stroke="#5b6b7a" stroke-width="2"/><line x1="437.7" y1="81.0" x2="437.7" y2="103.0" stroke="#5b6b7a" stroke-width="2"/><line x1="438.1" y1="81.0" x2="438.1" y2="103.0" stroke="#5b6b7a" stroke-width="2"/><line x1="641.2" y1="81.0" x2="641.2" y2="103.0" stroke="#5b6b7a" stroke-width="2"/><line x1="705.4" y1="81.0" x2="705.4" y2="103.0" stroke="#5b6b7a" stroke-width="2"/><line x1="706.9" y1="81.0" x2="706.9" y2="103.0" stroke="#5b6b7a" stroke-width="2"/><line x1="835.8" y1="81.0" x2="835.8" y2="103.0" stroke="#5b6b7a" stroke-width="2"/><line x1="190.0" y1="144.0" x2="840.0" y2="144.0" stroke="#c9c4bb" stroke-width="1"/><text x="178.0" y="148.0" text-anchor="end" font-family="Georgia,serif" font-size="13" font-style="italic" fill="#c05a2e">unknowing</text><text x="848.0" y="148.0" font-family="Georgia,serif" font-size="11.5" fill="#c05a2e">2</text><line x1="223.6" y1="133.0" x2="223.6" y2="155.0" stroke="#c05a2e" stroke-width="2"/><line x1="331.5" y1="133.0" x2="331.5" y2="155.0" stroke="#c05a2e" stroke-width="2"/><path d="M 331.5 170.0 L 331.5 178.0 L 428.0 178.0 L 428.0 170.0" fill="none" stroke="#1a1a1a" stroke-width="1"/><text x="379.7" y="195.0" text-anchor="middle" font-family="Georgia,serif" font-size="12" fill="#1a1a1a">closest approach: 60,437 characters, about 42.5 pages</text><line x1="190.0" y1="218.0" x2="840.0" y2="218.0" stroke="#c9c4bb" stroke-width="1"/><line x1="190.0" y1="218.0" x2="190.0" y2="223.0" stroke="#c9c4bb"/><text x="190.0" y="235.0" text-anchor="middle" font-family="Georgia,serif" font-size="10.5" fill="#8a837a">1</text><line x1="301.8" y1="218.0" x2="301.8" y2="223.0" stroke="#c9c4bb"/><text x="301.8" y="235.0" text-anchor="middle" font-family="Georgia,serif" font-size="10.5" fill="#8a837a">50</text><line x1="415.8" y1="218.0" x2="415.8" y2="223.0" stroke="#c9c4bb"/><text x="415.8" y="235.0" text-anchor="middle" font-family="Georgia,serif" font-size="10.5" fill="#8a837a">100</text><line x1="529.8" y1="218.0" x2="529.8" y2="223.0" stroke="#c9c4bb"/><text x="529.8" y="235.0" text-anchor="middle" font-family="Georgia,serif" font-size="10.5" fill="#8a837a">150</text><line x1="643.9" y1="218.0" x2="643.9" y2="223.0" stroke="#c9c4bb"/><text x="643.9" y="235.0" text-anchor="middle" font-family="Georgia,serif" font-size="10.5" fill="#8a837a">200</text><line x1="757.9" y1="218.0" x2="757.9" y2="223.0" stroke="#c9c4bb"/><text x="757.9" y="235.0" text-anchor="middle" font-family="Georgia,serif" font-size="10.5" fill="#8a837a">250</text><line x1="840.0" y1="218.0" x2="840.0" y2="223.0" stroke="#c9c4bb"/><text x="840.0" y="235.0" text-anchor="middle" font-family="Georgia,serif" font-size="10.5" fill="#8a837a">286</text><text x="840.0" y="248.0" text-anchor="end" font-family="Georgia,serif" font-size="10.5" font-style="italic" fill="#8a837a">page</text><line x1="190" y1="258.0" x2="840" y2="258.0" stroke="#c9c4bb" stroke-width="1"/><text x="190" y="282.0" font-family="Georgia,serif" font-size="17" fill="#1a1a1a">Where &#8216;generative unknowing&#8217; actually occurs</text><text x="178.0" y="310.0" text-anchor="end" font-family="Georgia,serif" font-size="12.5" fill="#1a1a1a">the book, all 286 pages</text><line x1="190" y1="306.0" x2="199" y2="306.0" stroke="#c9c4bb" stroke-width="1.5"/><text x="209.0" y="310.0" font-family="Georgia,serif" font-size="11.5" fill="#5a544c">0</text><text x="178.0" y="337.0" text-anchor="end" font-family="Georgia,serif" font-size="12.5" fill="#1a1a1a">the review&#8217;s body prose</text><line x1="190" y1="333.0" x2="199" y2="333.0" stroke="#c9c4bb" stroke-width="1.5"/><text x="209.0" y="337.0" font-family="Georgia,serif" font-size="11.5" fill="#5a544c">0  (2 uses of &#8216;unknowing&#8217;, both of them verbs)</text><text x="178.0" y="364.0" text-anchor="end" font-family="Georgia,serif" font-size="12.5" fill="#1a1a1a">the review&#8217;s title</text><rect x="190" y="354.0" width="12.2" height="12" fill="#5b6b7a"/><text x="212.2" y="364.0" font-family="Georgia,serif" font-size="11.5" fill="#5a544c">3  (one title string, printed 3 times on the page)</text><text x="178.0" y="391.0" text-anchor="end" font-family="Georgia,serif" font-size="12.5" fill="#1a1a1a">this repository</text><rect x="190" y="381.0" width="300.0" height="12" fill="#c05a2e"/><text x="500.0" y="391.0" font-family="Georgia,serif" font-size="11.5" fill="#5a544c">74  across 31 files, including a work titled with it</text></svg>
