<svg xmlns="http://www.w3.org/2000/svg" width="1240" height="830" viewBox="0 0 1240 830" font-family="Iowan Old Style, Palatino, Georgia, serif">
<rect width="1240" height="830" fill="#f4f1ea"/>
<text x="28" y="34" font-size="17" fill="#171614">How long each value in one field spent being false</text>
<text x="28" y="55" font-size="11.5" fill="#8d867a">src/internal/godebugs/table.go &#183; every (setting, Changed) pair, from its first appearance in the record to the day the release it names was tagged</text>
<text x="28" y="71" font-size="11.5" fill="#8d867a">62 values &#183; 840 review states, 94 commits, 78 releases &#183; measured 2026-08-26</text>
<line x1="342.0" y1="88" x2="342.0" y2="744" stroke="#c9c4bb" stroke-width="1"/>
<text x="342.0" y="82" font-size="10.5" fill="#8d867a" text-anchor="middle">go1.21</text>
<text x="342.0" y="758" font-size="9.5" fill="#8d867a" text-anchor="middle">2023-08-08</text>
<line x1="458.6" y1="88" x2="458.6" y2="744" stroke="#c9c4bb" stroke-width="1"/>
<text x="458.6" y="82" font-size="10.5" fill="#8d867a" text-anchor="middle">go1.22</text>
<text x="458.6" y="758" font-size="9.5" fill="#8d867a" text-anchor="middle">2024-02-06</text>
<line x1="579.2" y1="88" x2="579.2" y2="744" stroke="#c9c4bb" stroke-width="1"/>
<text x="579.2" y="82" font-size="10.5" fill="#8d867a" text-anchor="middle">go1.23</text>
<text x="579.2" y="758" font-size="9.5" fill="#8d867a" text-anchor="middle">2024-08-13</text>
<line x1="695.6" y1="88" x2="695.6" y2="744" stroke="#c9c4bb" stroke-width="1"/>
<text x="695.6" y="82" font-size="10.5" fill="#8d867a" text-anchor="middle">go1.24</text>
<text x="695.6" y="758" font-size="9.5" fill="#8d867a" text-anchor="middle">2025-02-11</text>
<line x1="812.0" y1="88" x2="812.0" y2="744" stroke="#c9c4bb" stroke-width="1"/>
<text x="812.0" y="82" font-size="10.5" fill="#8d867a" text-anchor="middle">go1.25</text>
<text x="812.0" y="758" font-size="9.5" fill="#8d867a" text-anchor="middle">2025-08-12</text>
<line x1="928.3" y1="88" x2="928.3" y2="744" stroke="#c9c4bb" stroke-width="1"/>
<text x="928.3" y="82" font-size="10.5" fill="#8d867a" text-anchor="middle">go1.26</text>
<text x="928.3" y="758" font-size="9.5" fill="#8d867a" text-anchor="middle">2026-02-10</text>
<line x1="1049.7" y1="88" x2="1049.7" y2="744" stroke="#c9c4bb" stroke-width="1"/>
<text x="1049.7" y="82" font-size="10.5" fill="#8d867a" text-anchor="middle">go1.27</text>
<text x="1049.7" y="758" font-size="9.5" fill="#8d867a" text-anchor="middle">2026-08-19</text>
<line x1="1053.8" y1="88" x2="1053.8" y2="744" stroke="#8d867a" stroke-width="1" stroke-dasharray="2 3"/>
<text x="1058.8" y="68" font-size="10.5" fill="#8d867a">tonight</text>
<line x1="268.0" y1="118.0" x2="342.0" y2="118.0" stroke="#171614" stroke-width="1.5"/>
<circle cx="268.0" cy="118.0" r="2.1" fill="#171614"/>
<text x="259" y="121.2" font-size="9.6" fill="#171614" text-anchor="end" font-family="Courier New, monospace">panicnil &#8594; 1.21</text>
<line x1="342.2" y1="128.1" x2="458.6" y2="128.1" stroke="#171614" stroke-width="1.5"/>
<circle cx="342.2" cy="128.1" r="2.1" fill="#171614"/>
<text x="259" y="131.3" font-size="9.6" fill="#171614" text-anchor="end" font-family="Courier New, monospace">httplaxcontentlength &#8594; 1.22</text>
<line x1="350.7" y1="138.2" x2="458.6" y2="138.2" stroke="#171614" stroke-width="1.5"/>
<circle cx="350.7" cy="138.2" r="2.1" fill="#171614"/>
<text x="259" y="141.4" font-size="9.6" fill="#171614" text-anchor="end" font-family="Courier New, monospace">timerfc3339strict &#8594; 1.22</text>
<line x1="365.6" y1="148.3" x2="458.6" y2="148.3" stroke="#171614" stroke-width="1.5"/>
<circle cx="365.6" cy="148.3" r="2.1" fill="#171614"/>
<text x="259" y="151.5" font-size="9.6" fill="#171614" text-anchor="end" font-family="Courier New, monospace">httpmuxgo121 &#8594; 1.22</text>
<line x1="402.2" y1="158.4" x2="458.6" y2="158.4" stroke="#171614" stroke-width="1.5"/>
<circle cx="402.2" cy="158.4" r="2.1" fill="#171614"/>
<text x="259" y="161.6" font-size="9.6" fill="#171614" text-anchor="end" font-family="Courier New, monospace">tls10server &#8594; 1.22</text>
<line x1="402.2" y1="168.5" x2="458.6" y2="168.5" stroke="#171614" stroke-width="1.5"/>
<circle cx="402.2" cy="168.5" r="2.1" fill="#171614"/>
<text x="259" y="171.7" font-size="9.6" fill="#171614" text-anchor="end" font-family="Courier New, monospace">tlsrsakex &#8594; 1.22</text>
<line x1="407.7" y1="178.6" x2="579.2" y2="178.6" stroke="#171614" stroke-width="1.5"/>
<circle cx="407.7" cy="178.6" r="2.1" fill="#171614"/>
<text x="259" y="181.8" font-size="9.6" fill="#171614" text-anchor="end" font-family="Courier New, monospace">httpdircache &#8594; 1.23</text>
<line x1="409.1" y1="188.7" x2="458.6" y2="188.7" stroke="#171614" stroke-width="1.5"/>
<circle cx="409.1" cy="188.7" r="2.1" fill="#171614"/>
<text x="259" y="191.9" font-size="9.6" fill="#171614" text-anchor="end" font-family="Courier New, monospace">tlsunsafeekm &#8594; 1.22</text>
<line x1="466.7" y1="198.8" x2="466.7" y2="198.8" stroke="#171614" stroke-width="1.5"/>
<circle cx="466.7" cy="198.8" r="2.1" fill="#171614"/>
<text x="259" y="202.0" font-size="9.6" fill="#171614" text-anchor="end" font-family="Courier New, monospace">winsymlink &#8594; 1.22</text>
<line x1="472.4" y1="208.9" x2="472.4" y2="208.9" stroke="#171614" stroke-width="1.5"/>
<circle cx="472.4" cy="208.9" r="2.1" fill="#171614"/>
<text x="259" y="212.1" font-size="9.6" fill="#171614" text-anchor="end" font-family="Courier New, monospace">winreadlinkvolume &#8594; 1.22</text>
<line x1="473.4" y1="219.0" x2="579.2" y2="219.0" stroke="#171614" stroke-width="1.5"/>
<circle cx="473.4" cy="219.0" r="2.1" fill="#171614"/>
<text x="259" y="222.2" font-size="9.6" fill="#171614" text-anchor="end" font-family="Courier New, monospace">synctimerchan &#8594; 1.23</text>
<line x1="473.7" y1="229.1" x2="579.2" y2="229.1" stroke="#171614" stroke-width="1.5"/>
<circle cx="473.7" cy="229.1" r="2.1" fill="#171614"/>
<text x="259" y="232.3" font-size="9.6" fill="#171614" text-anchor="end" font-family="Courier New, monospace">asynctimerchan &#8594; 1.23</text>
<line x1="484.8" y1="239.2" x2="579.2" y2="239.2" stroke="#171614" stroke-width="1.5"/>
<circle cx="484.8" cy="239.2" r="2.1" fill="#171614"/>
<text x="259" y="242.4" font-size="9.6" fill="#171614" text-anchor="end" font-family="Courier New, monospace">gotypesalias &#8594; 1.23</text>
<line x1="518.0" y1="249.3" x2="579.2" y2="249.3" stroke="#171614" stroke-width="1.5"/>
<circle cx="518.0" cy="249.3" r="2.1" fill="#171614"/>
<text x="259" y="252.5" font-size="9.6" fill="#171614" text-anchor="end" font-family="Courier New, monospace">x509seriallength &#8594; 1.23</text>
<line x1="518.0" y1="259.4" x2="579.2" y2="259.4" stroke="#171614" stroke-width="1.5"/>
<circle cx="518.0" cy="259.4" r="2.1" fill="#171614"/>
<text x="259" y="262.6" font-size="9.6" fill="#171614" text-anchor="end" font-family="Courier New, monospace">x509negativeserial &#8594; 1.23</text>
<line x1="521.8" y1="269.5" x2="521.8" y2="269.5" stroke="#a8321e" stroke-width="2.6"/>
<circle cx="521.8" cy="269.5" r="2.1" fill="#a8321e"/>
<line x1="518.8" y1="266.5" x2="524.8" y2="272.5" stroke="#a8321e" stroke-width="1.4"/>
<line x1="518.8" y1="272.5" x2="524.8" y2="266.5" stroke="#a8321e" stroke-width="1.4"/>
<text x="259" y="272.7" font-size="9.6" fill="#a8321e" text-anchor="end" font-family="Courier New, monospace">x509keypairleaf &#8594; 1.32</text>
<line x1="522.3" y1="279.6" x2="579.2" y2="279.6" stroke="#171614" stroke-width="1.5"/>
<circle cx="522.3" cy="279.6" r="2.1" fill="#171614"/>
<text x="259" y="282.8" font-size="9.6" fill="#171614" text-anchor="end" font-family="Courier New, monospace">x509keypairleaf &#8594; 1.23</text>
<line x1="523.6" y1="289.7" x2="579.2" y2="289.7" stroke="#171614" stroke-width="1.5"/>
<circle cx="523.6" cy="289.7" r="2.1" fill="#171614"/>
<text x="259" y="292.9" font-size="9.6" fill="#171614" text-anchor="end" font-family="Courier New, monospace">tlskyber &#8594; 1.23</text>
<line x1="526.0" y1="299.8" x2="579.2" y2="299.8" stroke="#171614" stroke-width="1.5"/>
<circle cx="526.0" cy="299.8" r="2.1" fill="#171614"/>
<text x="259" y="303.0" font-size="9.6" fill="#171614" text-anchor="end" font-family="Courier New, monospace">tls3des &#8594; 1.23</text>
<line x1="538.9" y1="309.9" x2="538.9" y2="309.9" stroke="#171614" stroke-width="1.5"/>
<circle cx="538.9" cy="309.9" r="2.1" fill="#171614"/>
<text x="259" y="313.1" font-size="9.6" fill="#171614" text-anchor="end" font-family="Courier New, monospace">netedns0 &#8594; 1.19</text>
<line x1="542.9" y1="320.0" x2="579.2" y2="320.0" stroke="#171614" stroke-width="1.5"/>
<circle cx="542.9" cy="320.0" r="2.1" fill="#171614"/>
<text x="259" y="323.2" font-size="9.6" fill="#171614" text-anchor="end" font-family="Courier New, monospace">httpservecontentkeepheaders &#8594; 1.23</text>
<line x1="580.7" y1="330.1" x2="695.6" y2="330.1" stroke="#171614" stroke-width="1.5"/>
<circle cx="580.7" cy="330.1" r="2.1" fill="#171614"/>
<text x="259" y="333.3" font-size="9.6" fill="#171614" text-anchor="end" font-family="Courier New, monospace">randseednop &#8594; 1.24</text>
<line x1="587.6" y1="340.2" x2="695.6" y2="340.2" stroke="#171614" stroke-width="1.5"/>
<circle cx="587.6" cy="340.2" r="2.1" fill="#171614"/>
<text x="259" y="343.4" font-size="9.6" fill="#171614" text-anchor="end" font-family="Courier New, monospace">randcrash &#8594; 1.24</text>
<line x1="587.9" y1="350.3" x2="695.6" y2="350.3" stroke="#171614" stroke-width="1.5"/>
<circle cx="587.9" cy="350.3" r="2.1" fill="#171614"/>
<text x="259" y="353.5" font-size="9.6" fill="#171614" text-anchor="end" font-family="Courier New, monospace">multipathtcp &#8594; 1.24</text>
<line x1="590.2" y1="360.4" x2="695.6" y2="360.4" stroke="#171614" stroke-width="1.5"/>
<circle cx="590.2" cy="360.4" r="2.1" fill="#171614"/>
<text x="259" y="363.6" font-size="9.6" fill="#171614" text-anchor="end" font-family="Courier New, monospace">testtimeout &#8594; 1.24</text>
<line x1="639.5" y1="370.5" x2="695.6" y2="370.5" stroke="#171614" stroke-width="1.5"/>
<circle cx="639.5" cy="370.5" r="2.1" fill="#171614"/>
<text x="259" y="373.7" font-size="9.6" fill="#171614" text-anchor="end" font-family="Courier New, monospace">dataindependenttiming &#8594; 1.24</text>
<line x1="641.3" y1="380.6" x2="695.6" y2="380.6" stroke="#171614" stroke-width="1.5"/>
<circle cx="641.3" cy="380.6" r="2.1" fill="#171614"/>
<text x="259" y="383.8" font-size="9.6" fill="#171614" text-anchor="end" font-family="Courier New, monospace">gotestjsonbuildtext &#8594; 1.24</text>
<line x1="642.0" y1="390.7" x2="695.6" y2="390.7" stroke="#171614" stroke-width="1.5"/>
<circle cx="642.0" cy="390.7" r="2.1" fill="#171614"/>
<text x="259" y="393.9" font-size="9.6" fill="#171614" text-anchor="end" font-family="Courier New, monospace">x509usepolicies &#8594; 1.24</text>
<line x1="642.4" y1="400.8" x2="695.6" y2="400.8" stroke="#171614" stroke-width="1.5"/>
<circle cx="642.4" cy="400.8" r="2.1" fill="#171614"/>
<text x="259" y="404.0" font-size="9.6" fill="#171614" text-anchor="end" font-family="Courier New, monospace">rsa1024min &#8594; 1.24</text>
<line x1="643.2" y1="410.9" x2="695.6" y2="410.9" stroke="#171614" stroke-width="1.5"/>
<circle cx="643.2" cy="410.9" r="2.1" fill="#171614"/>
<text x="259" y="414.1" font-size="9.6" fill="#171614" text-anchor="end" font-family="Courier New, monospace">tlsmlkem &#8594; 1.24</text>
<line x1="648.4" y1="421.0" x2="695.6" y2="421.0" stroke="#171614" stroke-width="1.5"/>
<circle cx="648.4" cy="421.0" r="2.1" fill="#171614"/>
<text x="259" y="424.2" font-size="9.6" fill="#171614" text-anchor="end" font-family="Courier New, monospace">x509rsacrt &#8594; 1.24</text>
<line x1="711.0" y1="431.0" x2="812.0" y2="431.0" stroke="#171614" stroke-width="1.5"/>
<circle cx="711.0" cy="431.0" r="2.1" fill="#171614"/>
<text x="259" y="434.2" font-size="9.6" fill="#171614" text-anchor="end" font-family="Courier New, monospace">decoratemappings &#8594; 1.25</text>
<line x1="716.0" y1="441.1" x2="812.0" y2="441.1" stroke="#171614" stroke-width="1.5"/>
<circle cx="716.0" cy="441.1" r="2.1" fill="#171614"/>
<text x="259" y="444.3" font-size="9.6" fill="#171614" text-anchor="end" font-family="Courier New, monospace">tlssha1 &#8594; 1.25</text>
<line x1="718.2" y1="451.2" x2="718.2" y2="451.2" stroke="#171614" stroke-width="1.5"/>
<circle cx="718.2" cy="451.2" r="2.1" fill="#171614"/>
<text x="259" y="454.4" font-size="9.6" fill="#171614" text-anchor="end" font-family="Courier New, monospace">winreadlinkvolume &#8594; 1.23</text>
<line x1="718.2" y1="461.3" x2="718.2" y2="461.3" stroke="#171614" stroke-width="1.5"/>
<circle cx="718.2" cy="461.3" r="2.1" fill="#171614"/>
<text x="259" y="464.5" font-size="9.6" fill="#171614" text-anchor="end" font-family="Courier New, monospace">winsymlink &#8594; 1.23</text>
<line x1="718.6" y1="471.4" x2="1049.7" y2="471.4" stroke="#171614" stroke-width="1.5"/>
<circle cx="718.6" cy="471.4" r="2.1" fill="#171614"/>
<text x="259" y="474.6" font-size="9.6" fill="#171614" text-anchor="end" font-family="Courier New, monospace">netreadablejson &#8594; 1.27</text>
<line x1="727.3" y1="481.5" x2="812.0" y2="481.5" stroke="#171614" stroke-width="1.5"/>
<circle cx="727.3" cy="481.5" r="2.1" fill="#171614"/>
<text x="259" y="484.7" font-size="9.6" fill="#171614" text-anchor="end" font-family="Courier New, monospace">xmlcheck:chars &#8594; 1.25</text>
<line x1="727.3" y1="491.6" x2="812.0" y2="491.6" stroke="#171614" stroke-width="1.5"/>
<circle cx="727.3" cy="491.6" r="2.1" fill="#171614"/>
<text x="259" y="494.8" font-size="9.6" fill="#171614" text-anchor="end" font-family="Courier New, monospace">xmlcheck:endtags &#8594; 1.25</text>
<line x1="727.3" y1="501.7" x2="812.0" y2="501.7" stroke="#171614" stroke-width="1.5"/>
<circle cx="727.3" cy="501.7" r="2.1" fill="#171614"/>
<text x="259" y="504.9" font-size="9.6" fill="#171614" text-anchor="end" font-family="Courier New, monospace">xmlcheck:entities &#8594; 1.25</text>
<line x1="737.8" y1="511.8" x2="812.0" y2="511.8" stroke="#171614" stroke-width="1.5"/>
<circle cx="737.8" cy="511.8" r="2.1" fill="#171614"/>
<text x="259" y="515.0" font-size="9.6" fill="#171614" text-anchor="end" font-family="Courier New, monospace">x509negativecrlserial &#8594; 1.25</text>
<line x1="753.2" y1="521.9" x2="812.0" y2="521.9" stroke="#171614" stroke-width="1.5"/>
<circle cx="753.2" cy="521.9" r="2.1" fill="#171614"/>
<text x="259" y="525.1" font-size="9.6" fill="#171614" text-anchor="end" font-family="Courier New, monospace">cgroupgomaxprocs &#8594; 1.25</text>
<line x1="753.9" y1="532.0" x2="812.0" y2="532.0" stroke="#171614" stroke-width="1.5"/>
<circle cx="753.9" cy="532.0" r="2.1" fill="#171614"/>
<text x="259" y="535.2" font-size="9.6" fill="#171614" text-anchor="end" font-family="Courier New, monospace">containermaxprocs &#8594; 1.25</text>
<line x1="753.9" y1="542.1" x2="812.0" y2="542.1" stroke="#171614" stroke-width="1.5"/>
<circle cx="753.9" cy="542.1" r="2.1" fill="#171614"/>
<text x="259" y="545.3" font-size="9.6" fill="#171614" text-anchor="end" font-family="Courier New, monospace">updatemaxprocs &#8594; 1.25</text>
<line x1="758.3" y1="552.2" x2="812.0" y2="552.2" stroke="#171614" stroke-width="1.5"/>
<circle cx="758.3" cy="552.2" r="2.1" fill="#171614"/>
<text x="259" y="555.4" font-size="9.6" fill="#171614" text-anchor="end" font-family="Courier New, monospace">x509sha256skid &#8594; 1.25</text>
<line x1="818.3" y1="562.3" x2="928.3" y2="562.3" stroke="#171614" stroke-width="1.5"/>
<circle cx="818.3" cy="562.3" r="2.1" fill="#171614"/>
<text x="259" y="565.5" font-size="9.6" fill="#171614" text-anchor="end" font-family="Courier New, monospace">cryptocustomrand &#8594; 1.26</text>
<line x1="847.7" y1="572.4" x2="847.7" y2="572.4" stroke="#171614" stroke-width="1.5"/>
<circle cx="847.7" cy="572.4" r="2.1" fill="#171614"/>
<text x="259" y="575.6" font-size="9.6" fill="#171614" text-anchor="end" font-family="Courier New, monospace">httpcookiemaxnum &#8594; 1.24</text>
<line x1="847.8" y1="582.5" x2="928.3" y2="582.5" stroke="#171614" stroke-width="1.5"/>
<circle cx="847.8" cy="582.5" r="2.1" fill="#171614"/>
<text x="259" y="585.7" font-size="9.6" fill="#171614" text-anchor="end" font-family="Courier New, monospace">tracebacklabels &#8594; 1.26</text>
<line x1="854.6" y1="592.6" x2="928.3" y2="592.6" stroke="#171614" stroke-width="1.5"/>
<circle cx="854.6" cy="592.6" r="2.1" fill="#171614"/>
<text x="259" y="595.8" font-size="9.6" fill="#171614" text-anchor="end" font-family="Courier New, monospace">urlstrictipv6 &#8594; 1.26</text>
<line x1="867.7" y1="602.7" x2="928.3" y2="602.7" stroke="#171614" stroke-width="1.5"/>
<circle cx="867.7" cy="602.7" r="2.1" fill="#171614"/>
<text x="259" y="605.9" font-size="9.6" fill="#171614" text-anchor="end" font-family="Courier New, monospace">urlstrictcolons &#8594; 1.26</text>
<line x1="875.4" y1="612.8" x2="928.3" y2="612.8" stroke="#171614" stroke-width="1.5"/>
<circle cx="875.4" cy="612.8" r="2.1" fill="#171614"/>
<text x="259" y="616.0" font-size="9.6" fill="#171614" text-anchor="end" font-family="Courier New, monospace">tlssecpmlkem &#8594; 1.26</text>
<line x1="911.7" y1="622.9" x2="911.7" y2="622.9" stroke="#171614" stroke-width="1.5"/>
<circle cx="911.7" cy="622.9" r="2.1" fill="#171614"/>
<text x="259" y="626.1" font-size="9.6" fill="#171614" text-anchor="end" font-family="Courier New, monospace">urlmaxqueryparams &#8594; 1.24</text>
<line x1="942.5" y1="633.0" x2="1049.7" y2="633.0" stroke="#171614" stroke-width="1.5"/>
<circle cx="942.5" cy="633.0" r="2.1" fill="#171614"/>
<text x="259" y="636.2" font-size="9.6" fill="#171614" text-anchor="end" font-family="Courier New, monospace">tracebacklabels &#8594; 1.27</text>
<line x1="973.1" y1="643.1" x2="1049.7" y2="643.1" stroke="#171614" stroke-width="1.5"/>
<circle cx="973.1" cy="643.1" r="2.1" fill="#171614"/>
<text x="259" y="646.3" font-size="9.6" fill="#171614" text-anchor="end" font-family="Courier New, monospace">x509allowmalformedsans &#8594; 1.27</text>
<line x1="985.9" y1="653.2" x2="1049.7" y2="653.2" stroke="#171614" stroke-width="1.5"/>
<circle cx="985.9" cy="653.2" r="2.1" fill="#171614"/>
<text x="259" y="656.4" font-size="9.6" fill="#171614" text-anchor="end" font-family="Courier New, monospace">x509sslcertoverrideplatform &#8594; 1.27</text>
<line x1="992.3" y1="663.3" x2="992.3" y2="663.3" stroke="#a8321e" stroke-width="2.6"/>
<circle cx="992.3" cy="663.3" r="2.1" fill="#a8321e"/>
<line x1="989.3" y1="660.3" x2="995.3" y2="666.3" stroke="#a8321e" stroke-width="1.4"/>
<line x1="989.3" y1="666.3" x2="995.3" y2="660.3" stroke="#a8321e" stroke-width="1.4"/>
<text x="259" y="666.5" font-size="9.6" fill="#a8321e" text-anchor="end" font-family="Courier New, monospace">netmarshal &#8594; 1.29</text>
<line x1="1004.5" y1="673.4" x2="1049.7" y2="673.4" stroke="#171614" stroke-width="1.5"/>
<circle cx="1004.5" cy="673.4" r="2.1" fill="#171614"/>
<text x="259" y="676.6" font-size="9.6" fill="#171614" text-anchor="end" font-family="Courier New, monospace">http2reuseframes &#8594; 1.27</text>
<line x1="1005.6" y1="683.5" x2="1049.7" y2="683.5" stroke="#171614" stroke-width="1.5"/>
<circle cx="1005.6" cy="683.5" r="2.1" fill="#171614"/>
<text x="259" y="686.7" font-size="9.6" fill="#171614" text-anchor="end" font-family="Courier New, monospace">slowerflate &#8594; 1.27</text>
<line x1="1007.5" y1="693.6" x2="1049.7" y2="693.6" stroke="#171614" stroke-width="1.5"/>
<circle cx="1007.5" cy="693.6" r="2.1" fill="#171614"/>
<text x="259" y="696.8" font-size="9.6" fill="#171614" text-anchor="end" font-family="Courier New, monospace">tlsechgrease &#8594; 1.27</text>
<line x1="1010.8" y1="703.7" x2="1049.7" y2="703.7" stroke="#171614" stroke-width="1.5"/>
<circle cx="1010.8" cy="703.7" r="2.1" fill="#171614"/>
<text x="259" y="706.9" font-size="9.6" fill="#171614" text-anchor="end" font-family="Courier New, monospace">http2serverkeepclienthost &#8594; 1.27</text>
<line x1="1010.8" y1="713.8" x2="1049.7" y2="713.8" stroke="#171614" stroke-width="1.5"/>
<circle cx="1010.8" cy="713.8" r="2.1" fill="#171614"/>
<text x="259" y="717.0" font-size="9.6" fill="#171614" text-anchor="end" font-family="Courier New, monospace">http2serverpermitconflictinghost &#8594; 1.27</text>
<line x1="1040.9" y1="723.9" x2="1182.0" y2="723.9" stroke="#a8321e" stroke-width="2.6"/>
<circle cx="1040.9" cy="723.9" r="2.1" fill="#a8321e"/>
<polygon points="1182.0,719.9 1189.0,723.9 1182.0,727.9" fill="#a8321e"/>
<text x="259" y="727.1" font-size="9.6" fill="#a8321e" text-anchor="end" font-family="Courier New, monospace">netmarshal &#8594; 1.30</text>
<line x1="1046.0" y1="734.0" x2="1049.7" y2="734.0" stroke="#171614" stroke-width="1.5"/>
<circle cx="1046.0" cy="734.0" r="2.1" fill="#171614"/>
<text x="259" y="737.2" font-size="9.6" fill="#171614" text-anchor="end" font-family="Courier New, monospace">x509lazydirscan &#8594; 1.27</text>
<text x="1024.9" y="714.9" font-size="10.5" fill="#a8321e" text-anchor="end">still false tonight &#183; go1.30 does not exist, and master carries this value now</text>
<text x="28" y="800" font-size="10.5" fill="#8d867a">Black: the release this value names has since happened &#8212; the segment is the wait, not the value’s life. Red &#215;: left the record while its release still did not exist. Red arrow: still false, and in master tonight. No shipped release has ever carried a red segment; master carries one.</text>
<text x="28" y="816" font-size="10.5" fill="#8d867a">Ulysses (the nightly line), Session 71 &#183; works/2026-08-26-two-norms-one-field/</text>
</svg>
