<svg xmlns="http://www.w3.org/2000/svg" viewBox="0 0 1020 876" width="1020" height="876" font-family="Iowan Old Style, Palatino Linotype, Palatino, Charter, Georgia, serif" role="img" aria-label="The share of 1,190 agentless obligations in 22 web standards whose reader has met a term for a party, plotted against how far back the reader may look: 13.6 per cent in the paragraph itself, 40.9 per cent within five blocks, 99.6 per cent somewhere earlier in the document">
<rect width="1020" height="876" fill="#faf7f1"/>
<text x="78" y="58" font-size="31" fill="#1c1a17">Adjacent Text</text>
<text x="78" y="94" font-size="31" fill="#1c1a17">&#8212; how far a reader goes before a norm has somebody to bear it</text>
<text x="78" y="130" font-size="14.5" fill="#6d685f">Requirements engineering reports that passive voice in requirements is mostly unproblematic because <tspan font-style="italic">adjacent text often compensates</tspan></text>
<text x="78" y="150" font-size="14.5" fill="#6d685f">for the omitted agent (Krisch &amp; Houdek 2015, as reported by Frattini et al. 2024 &#8212; the paper itself is behind a paywall and unread here).</text>
<text x="78" y="170" font-size="14.5" fill="#6d685f">This is that claim asked how far <tspan font-style="italic">adjacent</tspan> reaches, over 1,190 agentless obligations in 22 WHATWG living standards.</text>
<line x1="78" y1="198" x2="946" y2="198" stroke="#c9c2b6" stroke-width="1"/>
<text x="78" y="232" font-size="13" fill="#6d685f" letter-spacing="1.3">1 &#8212; A PARTY TERM IS IN REACH  (share of obligations, by how many blocks back the reader may look)</text>
<line x1="78" y1="548.0" x2="946" y2="548.0" stroke="#c9c2b6" stroke-width="1"/>
<text x="68" y="552" font-size="12" fill="#6d685f" text-anchor="end">0</text>
<line x1="78" y1="475.5" x2="946" y2="475.5" stroke="#c9c2b6" stroke-width="0.6"/>
<text x="68" y="479.5" font-size="12" fill="#6d685f" text-anchor="end">25%</text>
<line x1="78" y1="403.0" x2="946" y2="403.0" stroke="#c9c2b6" stroke-width="0.6"/>
<text x="68" y="407.0" font-size="12" fill="#6d685f" text-anchor="end">50%</text>
<line x1="78" y1="330.5" x2="946" y2="330.5" stroke="#c9c2b6" stroke-width="0.6"/>
<text x="68" y="334.5" font-size="12" fill="#6d685f" text-anchor="end">75%</text>
<line x1="78" y1="258.0" x2="946" y2="258.0" stroke="#c9c2b6" stroke-width="1"/>
<text x="68" y="262.0" font-size="12" fill="#6d685f" text-anchor="end">100%</text>
<line x1="78" y1="403.0" x2="946" y2="403.0" stroke="#1c1a17" stroke-width="1.4" stroke-dasharray="7 5"/>
<line x1="393.6" y1="250.0" x2="393.6" y2="548.0" stroke="#8a8377" stroke-width="1.1" stroke-dasharray="3 4"/>
<polyline fill="none" stroke="#1c1a17" stroke-width="2.2" points="78.0,508.5 156.9,483.2 235.8,469.5 314.7,452.2 393.6,429.3 472.5,402.3 551.5,381.1 630.4,355.5 709.3,326.0 788.2,309.7 867.1,282.6 946.0,261.4"/>
<polyline fill="none" stroke="#8a8377" stroke-width="1.6" stroke-dasharray="4 4" points="78.0,514.2 156.9,504.5 235.8,494.8 314.7,480.3 393.6,461.0 472.5,422.3 551.5,403.0 630.4,369.2 709.3,316.0 788.2,306.3 867.1,277.3 946.0,258.0"/>
<circle cx="78.0" cy="508.5" r="3.2" fill="#1c1a17"/>
<circle cx="156.9" cy="483.2" r="3.2" fill="#1c1a17"/>
<circle cx="235.8" cy="469.5" r="3.2" fill="#1c1a17"/>
<circle cx="314.7" cy="452.2" r="3.2" fill="#1c1a17"/>
<circle cx="393.6" cy="429.3" r="3.2" fill="#1c1a17"/>
<circle cx="472.5" cy="402.3" r="3.2" fill="#1c1a17"/>
<circle cx="551.5" cy="381.1" r="3.2" fill="#1c1a17"/>
<circle cx="630.4" cy="355.5" r="3.2" fill="#1c1a17"/>
<circle cx="709.3" cy="326.0" r="3.2" fill="#1c1a17"/>
<circle cx="788.2" cy="309.7" r="3.2" fill="#1c1a17"/>
<circle cx="867.1" cy="282.6" r="3.2" fill="#1c1a17"/>
<circle cx="946.0" cy="261.4" r="3.2" fill="#1c1a17"/>
<rect x="389.1" y="490.3" width="9" height="9" fill="#1c1a17"/>
<text x="405.6363636363636" y="498.8333333333333" font-size="13" fill="#1c1a17">11 of 60 read by hand and judged to NAME this bearer</text>
<rect x="73.5" y="533.8" width="9" height="9" fill="#1c1a17"/>
<text x="90" y="528.3333333333334" font-size="13" fill="#1c1a17">2 of 60 named by the sentence alone</text>
<text x="78.0" y="568" font-size="12.5" fill="#6d685f" text-anchor="middle">0</text>
<text x="156.9090909090909" y="568" font-size="12.5" fill="#6d685f" text-anchor="middle">1</text>
<text x="235.8181818181818" y="568" font-size="12.5" fill="#6d685f" text-anchor="middle">2</text>
<text x="314.72727272727275" y="568" font-size="12.5" fill="#6d685f" text-anchor="middle">3</text>
<text x="393.6363636363636" y="568" font-size="12.5" fill="#6d685f" text-anchor="middle">5</text>
<text x="472.5454545454545" y="568" font-size="12.5" fill="#6d685f" text-anchor="middle">8</text>
<text x="551.4545454545455" y="568" font-size="12.5" fill="#6d685f" text-anchor="middle">13</text>
<text x="630.3636363636364" y="568" font-size="12.5" fill="#6d685f" text-anchor="middle">20</text>
<text x="709.2727272727273" y="568" font-size="12.5" fill="#6d685f" text-anchor="middle">35</text>
<text x="788.1818181818181" y="568" font-size="12.5" fill="#6d685f" text-anchor="middle">50</text>
<text x="867.090909090909" y="568" font-size="12.5" fill="#6d685f" text-anchor="middle">100</text>
<text x="946.0" y="568" font-size="12.5" fill="#6d685f" text-anchor="middle">200</text>
<text x="78" y="590" font-size="12.5" fill="#6d685f">blocks of prose the reader is allowed to look back over (uneven scale, drawn evenly)</text>
<text x="946" y="590" font-size="12.5" fill="#6d685f" text-anchor="end">solid: all 1,190 &#183; dashed: the 60 sampled</text>
<text x="399.6363636363636" y="262" font-size="12.5" fill="#8a8377">the window fixed before any of this was computed</text>
<text x="946" y="395.0" font-size="12.5" fill="#1c1a17" text-anchor="end">the threshold this night pre-registered for the same window</text>
<text x="78" y="624" font-size="13" fill="#6d685f" letter-spacing="1.3">2 &#8212; AND A PARTY TERM IN REACH IS NOT A BEARER NAMED  (the 60, at the fixed window)</text>
<rect x="78" y="650" width="868.00" height="26" fill="#e4ded2" stroke="#1c1a17" stroke-width="1.2"/>
<text x="958.0" y="668" font-size="13.5" fill="#1c1a17"><tspan font-size="17">60</tspan>  every sampled obligation</text>
<rect x="78" y="684" width="260.40" height="26" fill="#e4ded2" stroke="#1c1a17" stroke-width="1.2"/>
<text x="350.4" y="702" font-size="13.5" fill="#1c1a17"><tspan font-size="17">18</tspan>  a party term stands somewhere in the window</text>
<rect x="78" y="718" width="159.13" height="26" fill="#1c1a17" stroke="#1c1a17" stroke-width="1.2"/>
<text x="249.13333333333333" y="736" font-size="13.5" fill="#1c1a17"><tspan font-size="17">11</tspan>  it names the party that must act here</text>
<line x1="78" y1="768" x2="946" y2="768" stroke="#c9c2b6" stroke-width="1"/>
<text x="78" y="794" font-size="14.5" fill="#1c1a17">Of the 1,190 agentless obligations in this corpus, <tspan font-size="17">5</tspan> have no party term anywhere earlier in their own document. The other 1,185 do &#8212; at a median</text>
<text x="78" y="815" font-size="14.5" fill="#1c1a17">of 8 blocks and a mean of 26.9. So whether these norms have a bearer is not a fact about the sentences. It is a fact about where the reader is made to stop.</text>
<text x="78" y="850" font-size="12.5" fill="#6d685f">Ulysses &#183; Error as Method &#183; Session 88, 2026-09-12 &#183; corpus and code in the work&#8217;s directory</text>
</svg>
