<svg xmlns="http://www.w3.org/2000/svg" viewBox="0 0 1000 964" width="1000" height="964" font-family="Georgia, 'Times New Roman', serif">
<rect width="1000" height="964" fill="#f4f1ea"/>
<text x="58.0" y="44.0" font-size="22" fill="#1b1b1b" text-anchor="start">The fixed algorithm is a family</text>
<text x="58.0" y="68.0" font-size="13" fill="#4a4a4a" text-anchor="start">Council Regulation (EC) No 1103/97, Art. 4 and 5, measured on the eleven irrevocably fixed rates of Reg. (EC) No 2866/98.</text>
<text x="58.0" y="87.0" font-size="13" fill="#4a4a4a" text-anchor="start">Exact integer arithmetic throughout; every value below is recomputable from convert.py &#8594; data.json.</text>
<text x="58.0" y="128.0" font-size="15" fill="#1b1b1b" text-anchor="start">A.  The apparatus Art. 4(3) forbids by name, and the one the reason for the ban actually reaches</text>
<line x1="92" y1="344.0" x2="700" y2="344.0" stroke="#cdc7b8" stroke-width="0.6"/>
<text x="82.0" y="348.0" font-size="11" fill="#8d8778" text-anchor="end">0%</text>
<line x1="92" y1="302.0" x2="700" y2="302.0" stroke="#cdc7b8" stroke-width="0.6"/>
<text x="82.0" y="306.0" font-size="11" fill="#8d8778" text-anchor="end">25%</text>
<line x1="92" y1="260.0" x2="700" y2="260.0" stroke="#cdc7b8" stroke-width="0.6"/>
<text x="82.0" y="264.0" font-size="11" fill="#8d8778" text-anchor="end">50%</text>
<line x1="92" y1="218.0" x2="700" y2="218.0" stroke="#cdc7b8" stroke-width="0.6"/>
<text x="82.0" y="222.0" font-size="11" fill="#8d8778" text-anchor="end">75%</text>
<line x1="92" y1="176.0" x2="700" y2="176.0" stroke="#cdc7b8" stroke-width="0.6"/>
<text x="82.0" y="180.0" font-size="11" fill="#8d8778" text-anchor="end">100%</text>
<line x1="92.0" y1="344" x2="92.0" y2="349" stroke="#8d8778" stroke-width="0.8"/>
<text x="92.0" y="364.0" font-size="11" fill="#8d8778" text-anchor="middle">10<tspan baseline-shift='super' font-size='9'>2</tspan></text>
<line x1="193.3" y1="344" x2="193.3" y2="349" stroke="#8d8778" stroke-width="0.8"/>
<text x="193.3" y="364.0" font-size="11" fill="#8d8778" text-anchor="middle">10<tspan baseline-shift='super' font-size='9'>3</tspan></text>
<line x1="294.7" y1="344" x2="294.7" y2="349" stroke="#8d8778" stroke-width="0.8"/>
<text x="294.7" y="364.0" font-size="11" fill="#8d8778" text-anchor="middle">10<tspan baseline-shift='super' font-size='9'>4</tspan></text>
<line x1="396.0" y1="344" x2="396.0" y2="349" stroke="#8d8778" stroke-width="0.8"/>
<text x="396.0" y="364.0" font-size="11" fill="#8d8778" text-anchor="middle">10<tspan baseline-shift='super' font-size='9'>5</tspan></text>
<line x1="497.3" y1="344" x2="497.3" y2="349" stroke="#8d8778" stroke-width="0.8"/>
<text x="497.3" y="364.0" font-size="11" fill="#8d8778" text-anchor="middle">10<tspan baseline-shift='super' font-size='9'>6</tspan></text>
<line x1="598.7" y1="344" x2="598.7" y2="349" stroke="#8d8778" stroke-width="0.8"/>
<text x="598.7" y="364.0" font-size="11" fill="#8d8778" text-anchor="middle">10<tspan baseline-shift='super' font-size='9'>7</tspan></text>
<line x1="700.0" y1="344" x2="700.0" y2="349" stroke="#8d8778" stroke-width="0.8"/>
<text x="700.0" y="364.0" font-size="11" fill="#8d8778" text-anchor="middle">10<tspan baseline-shift='super' font-size='9'>8</tspan></text>
<text x="396.0" y="386.0" font-size="11" fill="#8d8778" text-anchor="middle">amount converted, in minor units of the national currency (log scale)</text>
<text x="96.0" y="146.0" font-size="11" fill="#8d8778" text-anchor="start">share of amounts on which the banned result</text>
<text x="96.0" y="159.0" font-size="11" fill="#8d8778" text-anchor="start">differs from the one the statute requires</text>
<polyline points="92.0,344.0 193.3,344.0 294.7,343.9 396.0,343.2 497.3,335.9 598.7,264.3 700.0,176.0" fill="none" stroke="#8a3324" stroke-width="1.1" opacity="0.62"/>
<polyline points="92.0,344.0 193.3,343.9 294.7,343.7 396.0,342.0 497.3,323.9 598.7,176.0 700.0,176.0" fill="none" stroke="#8a3324" stroke-width="1.1" opacity="0.62"/>
<polyline points="92.0,344.0 193.3,344.0 294.7,343.7 396.0,342.2 497.3,326.4 598.7,176.0 700.0,176.0" fill="none" stroke="#8a3324" stroke-width="1.1" opacity="0.62"/>
<polyline points="92.0,344.0 193.3,344.0 294.7,344.0 396.0,343.7 497.3,341.1 598.7,315.1 700.0,176.0" fill="none" stroke="#8a3324" stroke-width="1.1" opacity="0.62"/>
<polyline points="92.0,343.4 193.3,343.0 294.7,340.2 396.0,311.1 497.3,176.0 598.7,176.0 700.0,176.0" fill="none" stroke="#8a3324" stroke-width="1.1" opacity="0.62"/>
<polyline points="92.0,344.0 193.3,344.0 294.7,344.0 396.0,343.8 497.3,342.3 598.7,327.1 700.0,176.0" fill="none" stroke="#8a3324" stroke-width="1.1" opacity="0.62"/>
<polyline points="92.0,344.0 193.3,344.0 294.7,343.9 396.0,343.2 497.3,335.9 598.7,264.3 700.0,176.0" fill="none" stroke="#8a3324" stroke-width="1.1" opacity="0.62"/>
<polyline points="92.0,343.8 193.3,343.8 294.7,344.0 396.0,340.6 497.3,307.8 598.7,176.0 700.0,176.0" fill="none" stroke="#8a3324" stroke-width="1.1" opacity="0.62"/>
<polyline points="92.0,344.0 193.3,344.0 294.7,344.0 396.0,343.4 497.3,338.3 598.7,286.5 700.0,176.0" fill="none" stroke="#8a3324" stroke-width="1.1" opacity="0.62"/>
<polyline points="92.0,344.0 193.3,344.0 294.7,343.8 396.0,342.1 497.3,327.9 598.7,176.0 700.0,176.0" fill="none" stroke="#8a3324" stroke-width="1.1" opacity="0.62"/>
<polyline points="92.0,344.0 193.3,344.0 294.7,343.9 396.0,342.7 497.3,331.5 598.7,220.2 700.0,176.0" fill="none" stroke="#8a3324" stroke-width="1.1" opacity="0.62"/>
<line x1="92.0" y1="344.0" x2="700.0" y2="344.0" stroke="#35506b" stroke-width="2.6"/>
<line x1="434.3" y1="260.0" x2="434.3" y2="263.0" stroke="#8a3324" stroke-width="0.5" opacity="0.5"/>
<text x="434.3" y="260.0" font-size="9.5" fill="#8a3324" text-anchor="middle">IEP</text>
<line x1="534.1" y1="260.0" x2="534.1" y2="263.0" stroke="#8a3324" stroke-width="0.5" opacity="0.5"/>
<text x="534.1" y="260.0" font-size="9.5" fill="#8a3324" text-anchor="middle">NLG</text>
<line x1="541.1" y1="260.0" x2="541.1" y2="251.0" stroke="#8a3324" stroke-width="0.5" opacity="0.5"/>
<text x="541.1" y="248.0" font-size="9.5" fill="#8a3324" text-anchor="middle">DEM</text>
<line x1="562.4" y1="260.0" x2="562.4" y2="263.0" stroke="#8a3324" stroke-width="0.5" opacity="0.5"/>
<text x="562.4" y="260.0" font-size="9.5" fill="#8a3324" text-anchor="middle">FIM</text>
<line x1="603.6" y1="260.0" x2="603.6" y2="263.0" stroke="#8a3324" stroke-width="0.5" opacity="0.5"/>
<text x="603.6" y="260.0" font-size="9.5" fill="#8a3324" text-anchor="middle">BEF</text>
<line x1="623.0" y1="260.0" x2="623.0" y2="251.0" stroke="#8a3324" stroke-width="0.5" opacity="0.5"/>
<text x="623.0" y="248.0" font-size="9.5" fill="#8a3324" text-anchor="middle">ATS</text>
<line x1="638.8" y1="260.0" x2="638.8" y2="263.0" stroke="#8a3324" stroke-width="0.5" opacity="0.5"/>
<text x="638.8" y="260.0" font-size="9.5" fill="#8a3324" text-anchor="middle">FRF</text>
<line x1="542.6" y1="260.0" x2="542.6" y2="239.0" stroke="#8a3324" stroke-width="0.5" opacity="0.5"/>
<text x="542.6" y="236.0" font-size="9.5" fill="#8a3324" text-anchor="middle">PTE</text>
<line x1="542.1" y1="260.0" x2="542.1" y2="227.0" stroke="#8a3324" stroke-width="0.5" opacity="0.5"/>
<text x="542.1" y="224.0" font-size="9.5" fill="#8a3324" text-anchor="middle">ESP</text>
<line x1="643.7" y1="260.0" x2="643.7" y2="239.0" stroke="#8a3324" stroke-width="0.5" opacity="0.5"/>
<text x="643.7" y="236.0" font-size="9.5" fill="#8a3324" text-anchor="middle">ITL</text>
<text x="714.0" y="180.0" font-size="11.5" fill="#8a3324" text-anchor="start">the inverse rate rounded</text>
<text x="714.0" y="194.0" font-size="11.5" fill="#8a3324" text-anchor="start">to six significant figures</text>
<text x="714.0" y="208.0" font-size="11.5" fill="#8d8778" text-anchor="start">(one line per currency)</text>
<text x="714.0" y="327.0" font-size="11.5" fill="#35506b" text-anchor="start">the same inverse as a float64:</text>
<text x="714.0" y="341.0" font-size="11.5" fill="#35506b" text-anchor="start">equally banned, never divergent</text>
<text x="58.0" y="408.0" font-size="12" fill="#4a4a4a" text-anchor="start">Recital (10) grounds the ban on accuracy &#8212; inverse rates &#8220;could result in significant inaccuracies, notably if large amounts are involved&#8221;. True of the six-figure inverse,</text>
<text x="58.0" y="425.0" font-size="12" fill="#4a4a4a" text-anchor="start">though the first single-unit divergence already appears at 30.86 BEF &#8212; &#8364;0.76 &#8212; and turns systematic from about &#8364;2,608 upward.</text>
<text x="58.0" y="442.0" font-size="12" fill="#4a4a4a" text-anchor="start">But Art. 4(3) bans &#8220;inverse rates&#8221; without qualification, so it equally bans the float64 inverse, which never diverges anywhere in the scan. The prohibition outlives its reason.</text>
<text x="58.0" y="470.0" font-size="15" fill="#1b1b1b" text-anchor="start">B.  The methods Art. 4(4) permits, disagreeing with each other</text>
<line x1="92" y1="640.0" x2="700" y2="640.0" stroke="#cdc7b8" stroke-width="0.6"/>
<text x="82.0" y="644.0" font-size="11" fill="#8d8778" text-anchor="end">0%</text>
<line x1="92" y1="605.0" x2="700" y2="605.0" stroke="#cdc7b8" stroke-width="0.6"/>
<text x="82.0" y="609.0" font-size="11" fill="#8d8778" text-anchor="end">20%</text>
<line x1="92" y1="570.0" x2="700" y2="570.0" stroke="#cdc7b8" stroke-width="0.6"/>
<text x="82.0" y="574.0" font-size="11" fill="#8d8778" text-anchor="end">40%</text>
<line x1="92" y1="535.0" x2="700" y2="535.0" stroke="#cdc7b8" stroke-width="0.6"/>
<text x="82.0" y="539.0" font-size="11" fill="#8d8778" text-anchor="end">60%</text>
<line x1="92" y1="500.0" x2="700" y2="500.0" stroke="#cdc7b8" stroke-width="0.6"/>
<text x="82.0" y="504.0" font-size="11" fill="#8d8778" text-anchor="end">80%</text>
<rect x="92.00" y="636.6" width="4.83" height="3.4" fill="#6b6a3f" opacity="0.75"/>
<rect x="97.63" y="636.5" width="4.83" height="3.5" fill="#6b6a3f" opacity="0.75"/>
<rect x="103.26" y="636.5" width="4.83" height="3.5" fill="#6b6a3f" opacity="0.75"/>
<rect x="108.89" y="636.5" width="4.83" height="3.5" fill="#6b6a3f" opacity="0.75"/>
<rect x="114.52" y="636.4" width="4.83" height="3.6" fill="#6b6a3f" opacity="0.75"/>
<rect x="120.15" y="636.4" width="4.83" height="3.6" fill="#6b6a3f" opacity="0.75"/>
<rect x="125.78" y="636.4" width="4.83" height="3.6" fill="#6b6a3f" opacity="0.75"/>
<rect x="131.41" y="636.4" width="4.83" height="3.6" fill="#6b6a3f" opacity="0.75"/>
<rect x="137.04" y="636.4" width="4.83" height="3.6" fill="#6b6a3f" opacity="0.75"/>
<rect x="142.67" y="636.1" width="4.83" height="3.9" fill="#6b6a3f" opacity="0.75"/>
<rect x="148.30" y="632.7" width="4.83" height="7.3" fill="#6b6a3f" opacity="0.75"/>
<rect x="153.93" y="632.7" width="4.83" height="7.3" fill="#6b6a3f" opacity="0.75"/>
<rect x="159.56" y="632.5" width="4.83" height="7.5" fill="#6b6a3f" opacity="0.75"/>
<rect x="165.19" y="632.5" width="4.83" height="7.5" fill="#6b6a3f" opacity="0.75"/>
<rect x="170.81" y="632.4" width="4.83" height="7.6" fill="#6b6a3f" opacity="0.75"/>
<rect x="176.44" y="632.4" width="4.83" height="7.6" fill="#6b6a3f" opacity="0.75"/>
<rect x="182.07" y="632.3" width="4.83" height="7.7" fill="#6b6a3f" opacity="0.75"/>
<rect x="187.70" y="632.3" width="4.83" height="7.7" fill="#6b6a3f" opacity="0.75"/>
<rect x="193.33" y="632.3" width="4.83" height="7.7" fill="#6b6a3f" opacity="0.75"/>
<rect x="198.96" y="632.2" width="4.83" height="7.8" fill="#6b6a3f" opacity="0.75"/>
<rect x="204.59" y="632.1" width="4.83" height="7.9" fill="#6b6a3f" opacity="0.75"/>
<rect x="210.22" y="631.4" width="4.83" height="8.6" fill="#6b6a3f" opacity="0.75"/>
<rect x="215.85" y="631.2" width="4.83" height="8.8" fill="#6b6a3f" opacity="0.75"/>
<rect x="221.48" y="631.1" width="4.83" height="8.9" fill="#6b6a3f" opacity="0.75"/>
<rect x="227.11" y="631.1" width="4.83" height="8.9" fill="#6b6a3f" opacity="0.75"/>
<rect x="232.74" y="631.1" width="4.83" height="8.9" fill="#6b6a3f" opacity="0.75"/>
<rect x="238.37" y="631.1" width="4.83" height="8.9" fill="#6b6a3f" opacity="0.75"/>
<rect x="244.00" y="631.1" width="4.83" height="8.9" fill="#6b6a3f" opacity="0.75"/>
<rect x="249.63" y="631.1" width="4.83" height="8.9" fill="#6b6a3f" opacity="0.75"/>
<rect x="255.26" y="631.0" width="4.83" height="9.0" fill="#6b6a3f" opacity="0.75"/>
<rect x="260.89" y="630.9" width="4.83" height="9.1" fill="#6b6a3f" opacity="0.75"/>
<rect x="266.52" y="630.9" width="4.83" height="9.1" fill="#6b6a3f" opacity="0.75"/>
<rect x="272.15" y="630.8" width="4.83" height="9.2" fill="#6b6a3f" opacity="0.75"/>
<rect x="277.78" y="630.8" width="4.83" height="9.2" fill="#6b6a3f" opacity="0.75"/>
<rect x="283.41" y="630.8" width="4.83" height="9.2" fill="#6b6a3f" opacity="0.75"/>
<rect x="289.04" y="630.7" width="4.83" height="9.3" fill="#6b6a3f" opacity="0.75"/>
<rect x="294.67" y="630.7" width="4.83" height="9.3" fill="#6b6a3f" opacity="0.75"/>
<rect x="300.30" y="630.7" width="4.83" height="9.3" fill="#6b6a3f" opacity="0.75"/>
<rect x="305.93" y="630.7" width="4.83" height="9.3" fill="#6b6a3f" opacity="0.75"/>
<rect x="311.56" y="630.7" width="4.83" height="9.3" fill="#6b6a3f" opacity="0.75"/>
<rect x="317.19" y="630.2" width="4.83" height="9.8" fill="#6b6a3f" opacity="0.75"/>
<rect x="322.81" y="630.1" width="4.83" height="9.9" fill="#6b6a3f" opacity="0.75"/>
<rect x="328.44" y="629.9" width="4.83" height="10.1" fill="#6b6a3f" opacity="0.75"/>
<rect x="334.07" y="629.9" width="4.83" height="10.1" fill="#6b6a3f" opacity="0.75"/>
<rect x="339.70" y="629.8" width="4.83" height="10.2" fill="#6b6a3f" opacity="0.75"/>
<rect x="345.33" y="629.6" width="4.83" height="10.4" fill="#6b6a3f" opacity="0.75"/>
<rect x="350.96" y="629.5" width="4.83" height="10.5" fill="#6b6a3f" opacity="0.75"/>
<rect x="356.59" y="629.4" width="4.83" height="10.6" fill="#6b6a3f" opacity="0.75"/>
<rect x="362.22" y="629.4" width="4.83" height="10.6" fill="#6b6a3f" opacity="0.75"/>
<rect x="367.85" y="628.8" width="4.83" height="11.2" fill="#6b6a3f" opacity="0.75"/>
<rect x="373.48" y="613.0" width="4.83" height="27.0" fill="#6b6a3f" opacity="0.75"/>
<rect x="379.11" y="612.8" width="4.83" height="27.2" fill="#6b6a3f" opacity="0.75"/>
<rect x="384.74" y="612.7" width="4.83" height="27.3" fill="#6b6a3f" opacity="0.75"/>
<rect x="390.37" y="612.7" width="4.83" height="27.3" fill="#6b6a3f" opacity="0.75"/>
<rect x="396.00" y="612.7" width="4.83" height="27.3" fill="#6b6a3f" opacity="0.75"/>
<rect x="401.63" y="612.6" width="4.83" height="27.4" fill="#6b6a3f" opacity="0.75"/>
<rect x="407.26" y="612.6" width="4.83" height="27.4" fill="#6b6a3f" opacity="0.75"/>
<rect x="412.89" y="612.6" width="4.83" height="27.4" fill="#6b6a3f" opacity="0.75"/>
<rect x="418.52" y="612.5" width="4.83" height="27.5" fill="#6b6a3f" opacity="0.75"/>
<rect x="424.15" y="612.4" width="4.83" height="27.6" fill="#6b6a3f" opacity="0.75"/>
<rect x="429.78" y="610.3" width="4.83" height="29.7" fill="#6b6a3f" opacity="0.75"/>
<rect x="435.41" y="609.9" width="4.83" height="30.1" fill="#6b6a3f" opacity="0.75"/>
<rect x="441.04" y="609.9" width="4.83" height="30.1" fill="#6b6a3f" opacity="0.75"/>
<rect x="446.67" y="609.8" width="4.83" height="30.2" fill="#6b6a3f" opacity="0.75"/>
<rect x="452.30" y="609.7" width="4.83" height="30.3" fill="#6b6a3f" opacity="0.75"/>
<rect x="457.93" y="609.7" width="4.83" height="30.3" fill="#6b6a3f" opacity="0.75"/>
<rect x="463.56" y="609.6" width="4.83" height="30.4" fill="#6b6a3f" opacity="0.75"/>
<rect x="469.19" y="609.6" width="4.83" height="30.4" fill="#6b6a3f" opacity="0.75"/>
<rect x="474.81" y="609.5" width="4.83" height="30.5" fill="#6b6a3f" opacity="0.75"/>
<rect x="480.44" y="606.8" width="4.83" height="33.2" fill="#6b6a3f" opacity="0.75"/>
<rect x="486.07" y="577.6" width="4.83" height="62.4" fill="#6b6a3f" opacity="0.75"/>
<rect x="491.70" y="576.9" width="4.83" height="63.1" fill="#6b6a3f" opacity="0.75"/>
<rect x="497.33" y="576.7" width="4.83" height="63.3" fill="#6b6a3f" opacity="0.75"/>
<rect x="502.96" y="576.7" width="4.83" height="63.3" fill="#6b6a3f" opacity="0.75"/>
<rect x="508.59" y="576.6" width="4.83" height="63.4" fill="#6b6a3f" opacity="0.75"/>
<rect x="514.22" y="576.6" width="4.83" height="63.4" fill="#6b6a3f" opacity="0.75"/>
<rect x="519.85" y="576.6" width="4.83" height="63.4" fill="#6b6a3f" opacity="0.75"/>
<rect x="525.48" y="576.3" width="4.83" height="63.7" fill="#6b6a3f" opacity="0.75"/>
<rect x="531.11" y="576.2" width="4.83" height="63.8" fill="#6b6a3f" opacity="0.75"/>
<rect x="536.74" y="576.2" width="4.83" height="63.8" fill="#6b6a3f" opacity="0.75"/>
<rect x="542.37" y="551.1" width="4.83" height="88.9" fill="#6b6a3f" opacity="0.75"/>
<rect x="548.00" y="551.1" width="4.83" height="88.9" fill="#6b6a3f" opacity="0.75"/>
<rect x="553.63" y="551.0" width="4.83" height="89.0" fill="#6b6a3f" opacity="0.75"/>
<rect x="559.26" y="551.0" width="4.83" height="89.0" fill="#6b6a3f" opacity="0.75"/>
<rect x="564.89" y="551.0" width="4.83" height="89.0" fill="#6b6a3f" opacity="0.75"/>
<rect x="570.52" y="551.0" width="4.83" height="89.0" fill="#6b6a3f" opacity="0.75"/>
<rect x="576.15" y="550.9" width="4.83" height="89.1" fill="#6b6a3f" opacity="0.75"/>
<rect x="581.78" y="550.9" width="4.83" height="89.1" fill="#6b6a3f" opacity="0.75"/>
<rect x="587.41" y="550.8" width="4.83" height="89.2" fill="#6b6a3f" opacity="0.75"/>
<rect x="593.04" y="550.7" width="4.83" height="89.3" fill="#6b6a3f" opacity="0.75"/>
<rect x="598.67" y="504.7" width="4.83" height="135.3" fill="#6b6a3f" opacity="0.75"/>
<rect x="604.30" y="504.7" width="4.83" height="135.3" fill="#6b6a3f" opacity="0.75"/>
<rect x="609.93" y="504.7" width="4.83" height="135.3" fill="#6b6a3f" opacity="0.75"/>
<rect x="615.56" y="504.7" width="4.83" height="135.3" fill="#6b6a3f" opacity="0.75"/>
<rect x="621.19" y="504.7" width="4.83" height="135.3" fill="#6b6a3f" opacity="0.75"/>
<rect x="626.81" y="504.7" width="4.83" height="135.3" fill="#6b6a3f" opacity="0.75"/>
<rect x="632.44" y="504.6" width="4.83" height="135.4" fill="#6b6a3f" opacity="0.75"/>
<rect x="638.07" y="504.6" width="4.83" height="135.4" fill="#6b6a3f" opacity="0.75"/>
<rect x="643.70" y="504.6" width="4.83" height="135.4" fill="#6b6a3f" opacity="0.75"/>
<rect x="649.33" y="504.6" width="4.83" height="135.4" fill="#6b6a3f" opacity="0.75"/>
<rect x="654.96" y="504.5" width="4.83" height="135.5" fill="#6b6a3f" opacity="0.75"/>
<rect x="660.59" y="504.5" width="4.83" height="135.5" fill="#6b6a3f" opacity="0.75"/>
<rect x="666.22" y="504.5" width="4.83" height="135.5" fill="#6b6a3f" opacity="0.75"/>
<rect x="671.85" y="504.5" width="4.83" height="135.5" fill="#6b6a3f" opacity="0.75"/>
<rect x="677.48" y="504.5" width="4.83" height="135.5" fill="#6b6a3f" opacity="0.75"/>
<rect x="683.11" y="504.5" width="4.83" height="135.5" fill="#6b6a3f" opacity="0.75"/>
<rect x="688.74" y="504.2" width="4.83" height="135.8" fill="#6b6a3f" opacity="0.75"/>
<rect x="694.37" y="504.2" width="4.83" height="135.8" fill="#6b6a3f" opacity="0.75"/>
<text x="396.0" y="660.0" font-size="11" fill="#8d8778" text-anchor="middle">each of the 108 ordered currency pairs, ranked &#8212; all 108 of them disagree</text>
<text x="696.0" y="496.2" font-size="11" fill="#6b6a3f" text-anchor="end">ATS &#8594; LUF, 77.6%</text>
<line x1="92" y1="612.7" x2="700" y2="612.7" stroke="#1b1b1b" stroke-width="0.9" stroke-dasharray="4 3"/>
<text x="716.0" y="616.7" font-size="11" fill="#1b1b1b" text-anchor="start">median 15.6%</text>
<text x="58.0" y="686.0" font-size="12" fill="#4a4a4a" text-anchor="start">Rounding the intermediate euro amount to three decimals, to four, five, six, or not at all: the first clause of Art. 4(4) permits all five.</text>
<text x="58.0" y="703.0" font-size="12" fill="#4a4a4a" text-anchor="start">On amounts up to 4,000 minor units they spread by as much as 3 minor units. The second clause of the very same sentence reads:</text>
<text x="58.0" y="720.0" font-size="12" fill="#1b1b1b" text-anchor="start">&#8220;No alternative method of calculation may be used unless it produces the same results.&#8221;</text>
<text x="58.0" y="752.0" font-size="15" fill="#1b1b1b" text-anchor="start">C.  The exact half-way amounts, where no measurement can prefer either side</text>
<line x1="92" y1="792" x2="700" y2="792" stroke="#cdc7b8" stroke-width="0.8"/>
<text x="82.0" y="796.0" font-size="11" fill="#8d8778" text-anchor="end">ATS</text>
<line x1="104.2" y1="788" x2="104.2" y2="796" stroke="#35506b" stroke-width="1.2" opacity="0.65"/>
<line x1="128.5" y1="785" x2="128.5" y2="799" stroke="#8a3324" stroke-width="1.8"/>
<line x1="152.8" y1="788" x2="152.8" y2="796" stroke="#35506b" stroke-width="1.2" opacity="0.65"/>
<line x1="177.1" y1="785" x2="177.1" y2="799" stroke="#8a3324" stroke-width="1.8"/>
<line x1="201.4" y1="788" x2="201.4" y2="796" stroke="#35506b" stroke-width="1.2" opacity="0.65"/>
<line x1="225.8" y1="785" x2="225.8" y2="799" stroke="#8a3324" stroke-width="1.8"/>
<line x1="250.1" y1="788" x2="250.1" y2="796" stroke="#35506b" stroke-width="1.2" opacity="0.65"/>
<line x1="274.4" y1="785" x2="274.4" y2="799" stroke="#8a3324" stroke-width="1.8"/>
<line x1="298.7" y1="788" x2="298.7" y2="796" stroke="#35506b" stroke-width="1.2" opacity="0.65"/>
<line x1="323.0" y1="785" x2="323.0" y2="799" stroke="#8a3324" stroke-width="1.8"/>
<line x1="347.4" y1="788" x2="347.4" y2="796" stroke="#35506b" stroke-width="1.2" opacity="0.65"/>
<line x1="371.7" y1="785" x2="371.7" y2="799" stroke="#8a3324" stroke-width="1.8"/>
<line x1="396.0" y1="788" x2="396.0" y2="796" stroke="#35506b" stroke-width="1.2" opacity="0.65"/>
<line x1="420.3" y1="785" x2="420.3" y2="799" stroke="#8a3324" stroke-width="1.8"/>
<line x1="444.6" y1="788" x2="444.6" y2="796" stroke="#35506b" stroke-width="1.2" opacity="0.65"/>
<line x1="469.0" y1="785" x2="469.0" y2="799" stroke="#8a3324" stroke-width="1.8"/>
<line x1="493.3" y1="788" x2="493.3" y2="796" stroke="#35506b" stroke-width="1.2" opacity="0.65"/>
<line x1="517.6" y1="785" x2="517.6" y2="799" stroke="#8a3324" stroke-width="1.8"/>
<line x1="541.9" y1="788" x2="541.9" y2="796" stroke="#35506b" stroke-width="1.2" opacity="0.65"/>
<line x1="566.2" y1="785" x2="566.2" y2="799" stroke="#8a3324" stroke-width="1.8"/>
<line x1="590.6" y1="788" x2="590.6" y2="796" stroke="#35506b" stroke-width="1.2" opacity="0.65"/>
<line x1="614.9" y1="785" x2="614.9" y2="799" stroke="#8a3324" stroke-width="1.8"/>
<line x1="639.2" y1="788" x2="639.2" y2="796" stroke="#35506b" stroke-width="1.2" opacity="0.65"/>
<line x1="663.5" y1="785" x2="663.5" y2="799" stroke="#8a3324" stroke-width="1.8"/>
<line x1="687.8" y1="788" x2="687.8" y2="796" stroke="#35506b" stroke-width="1.2" opacity="0.65"/>
<text x="714.0" y="796.0" font-size="10" fill="#8d8778" text-anchor="start">a tie every &#8364;50</text>
<line x1="92" y1="813" x2="700" y2="813" stroke="#cdc7b8" stroke-width="0.8"/>
<text x="82.0" y="817.0" font-size="11" fill="#8d8778" text-anchor="end">ESP</text>
<line x1="152.8" y1="806" x2="152.8" y2="820" stroke="#8a3324" stroke-width="1.8"/>
<line x1="274.4" y1="809" x2="274.4" y2="817" stroke="#35506b" stroke-width="1.2" opacity="0.65"/>
<line x1="396.0" y1="806" x2="396.0" y2="820" stroke="#8a3324" stroke-width="1.8"/>
<line x1="517.6" y1="809" x2="517.6" y2="817" stroke="#35506b" stroke-width="1.2" opacity="0.65"/>
<line x1="639.2" y1="806" x2="639.2" y2="820" stroke="#8a3324" stroke-width="1.8"/>
<text x="714.0" y="817.0" font-size="10" fill="#8d8778" text-anchor="start">a tie every &#8364;250</text>
<line x1="92" y1="834" x2="700" y2="834" stroke="#cdc7b8" stroke-width="0.8"/>
<text x="82.0" y="838.0" font-size="11" fill="#8d8778" text-anchor="end">DEM</text>
<line x1="213.6" y1="830" x2="213.6" y2="838" stroke="#35506b" stroke-width="1.2" opacity="0.65"/>
<line x1="456.8" y1="827" x2="456.8" y2="841" stroke="#8a3324" stroke-width="1.8"/>
<line x1="700.0" y1="830" x2="700.0" y2="838" stroke="#35506b" stroke-width="1.2" opacity="0.65"/>
<text x="714.0" y="838.0" font-size="10" fill="#8d8778" text-anchor="start">a tie every &#8364;500</text>
<line x1="92" y1="855" x2="700" y2="855" stroke="#cdc7b8" stroke-width="0.8"/>
<text x="82.0" y="859.0" font-size="11" fill="#8d8778" text-anchor="end">IEP</text>
<line x1="396.0" y1="851" x2="396.0" y2="859" stroke="#35506b" stroke-width="1.2" opacity="0.65"/>
<text x="714.0" y="859.0" font-size="10" fill="#8d8778" text-anchor="start">a tie every &#8364;1,250</text>
<line x1="92.0" y1="869" x2="92.0" y2="874" stroke="#8d8778" stroke-width="0.8"/>
<text x="92.0" y="887.0" font-size="10" fill="#8d8778" text-anchor="middle">&#8364;0</text>
<line x1="213.6" y1="869" x2="213.6" y2="874" stroke="#8d8778" stroke-width="0.8"/>
<text x="213.6" y="887.0" font-size="10" fill="#8d8778" text-anchor="middle">&#8364;500</text>
<line x1="335.2" y1="869" x2="335.2" y2="874" stroke="#8d8778" stroke-width="0.8"/>
<text x="335.2" y="887.0" font-size="10" fill="#8d8778" text-anchor="middle">&#8364;1,000</text>
<line x1="456.8" y1="869" x2="456.8" y2="874" stroke="#8d8778" stroke-width="0.8"/>
<text x="456.8" y="887.0" font-size="10" fill="#8d8778" text-anchor="middle">&#8364;1,500</text>
<line x1="578.4" y1="869" x2="578.4" y2="874" stroke="#8d8778" stroke-width="0.8"/>
<text x="578.4" y="887.0" font-size="10" fill="#8d8778" text-anchor="middle">&#8364;2,000</text>
<line x1="700.0" y1="869" x2="700.0" y2="874" stroke="#8d8778" stroke-width="0.8"/>
<text x="700.0" y="887.0" font-size="10" fill="#8d8778" text-anchor="middle">&#8364;2,500</text>
<line x1="92" y1="903" x2="92" y2="917" stroke="#8a3324" stroke-width="1.8"/>
<text x="100.0" y="915.0" font-size="11" fill="#8d8778" text-anchor="start">statute and machine return different money</text>
<line x1="392" y1="906" x2="392" y2="914" stroke="#35506b" stroke-width="1.2" opacity="0.65"/>
<text x="400.0" y="915.0" font-size="11" fill="#8d8778" text-anchor="start">a tie both rules happen to resolve the same way</text>
<text x="58.0" y="926.0" font-size="12" fill="#4a4a4a" text-anchor="start">Tall marks: the statute (Art. 5, &#8220;the sum shall be rounded up&#8221;) and the prevailing machine default (round half to even) return different money &#8212; exactly half of all ties.</text>
<text x="58.0" y="944.0" font-size="12" fill="#4a4a4a" text-anchor="start">&#8364;1500.00 is exactly 2933.745 German marks. The statute says 2933.75, IEEE&#160;754-2019&#8217;s default rounding attribute says 2933.74. Neither is nearer.</text>
</svg>