<svg xmlns="http://www.w3.org/2000/svg" viewBox="0 0 760 566" font-family="Georgia, serif" font-size="13">
<rect width="100%%" height="100%%" fill="#f4f1ea"/>
<text x="20" y="30" font-size="18" font-style="italic">Order-Words: twelve works came back</text>
<text x="20" y="50" font-size="12" fill="#6b665d">Square fill: is the note visible in this work? (blind coder: black applies, ochre partly, white absent). Mark: what the maker did.</text>
<text x="20" y="80" font-size="14" font-weight="bold">nothing said</text>
<text x="30" y="122">Not Assigned</text>
<text x="260" y="122" fill="#6b665d" font-size="12">no notes</text>
<text x="380" y="122" font-size="12">left as it was</text>
<text x="30" y="152">Not assigned</text>
<text x="260" y="152" fill="#6b665d" font-size="12">no notes</text>
<text x="380" y="152" font-size="12">changed, defects 1 → 0</text>
<text x="30" y="182">Tenancy</text>
<text x="260" y="182" fill="#6b665d" font-size="12">no notes</text>
<text x="380" y="182" font-size="12">changed, defects 1 → 1 (picture identical)</text>
<text x="30" y="212">Not assigned</text>
<text x="260" y="212" fill="#6b665d" font-size="12">no notes</text>
<text x="380" y="212" font-size="12">left as it was</text>
<text x="20" y="234" font-size="14" font-weight="bold">notes on its own picture</text>
<text x="30" y="276">Held by No One</text>
<rect x="260" y="260" width="22" height="22" fill="#1d1b18" stroke="#1d1b18"/>
<path d="M263 272 l5 6 l11 -14" stroke="#2f6b4a" stroke-width="3" fill="none"/>
<rect x="294" y="260" width="22" height="22" fill="#1d1b18" stroke="#1d1b18"/>
<path d="M297 272 l5 6 l11 -14" stroke="#2f6b4a" stroke-width="3" fill="none"/>
<rect x="328" y="260" width="22" height="22" fill="#1d1b18" stroke="#1d1b18"/>
<path d="M331 272 l5 6 l11 -14" stroke="#2f6b4a" stroke-width="3" fill="none"/>
<text x="380" y="276" font-size="12">changed, defects 0 → 0</text>
<text x="30" y="306">The Whole Root</text>
<rect x="260" y="290" width="22" height="22" fill="#1d1b18" stroke="#1d1b18"/>
<path d="M263 302 l5 6 l11 -14" stroke="#2f6b4a" stroke-width="3" fill="none"/>
<rect x="294" y="290" width="22" height="22" fill="#1d1b18" stroke="#1d1b18"/>
<path d="M297 302 l5 6 l11 -14" stroke="#2f6b4a" stroke-width="3" fill="none"/>
<rect x="328" y="290" width="22" height="22" fill="#1d1b18" stroke="#1d1b18"/>
<path d="M331 302 l5 6 l11 -14" stroke="#2f6b4a" stroke-width="3" fill="none"/>
<text x="380" y="306" font-size="12">changed, defects 2 → 0</text>
<text x="30" y="336">Not assigned</text>
<rect x="260" y="320" width="22" height="22" fill="#1d1b18" stroke="#1d1b18"/>
<path d="M263 332 l5 6 l11 -14" stroke="#2f6b4a" stroke-width="3" fill="none"/>
<rect x="294" y="320" width="22" height="22" fill="#1d1b18" stroke="#1d1b18"/>
<path d="M297 332 l5 6 l11 -14" stroke="#2f6b4a" stroke-width="3" fill="none"/>
<rect x="328" y="320" width="22" height="22" fill="#1d1b18" stroke="#1d1b18"/>
<path d="M331 332 l5 6 l11 -14" stroke="#2f6b4a" stroke-width="3" fill="none"/>
<text x="380" y="336" font-size="12">changed, defects 1 → 0</text>
<text x="30" y="366">Vacant Lots</text>
<rect x="260" y="350" width="22" height="22" fill="#1d1b18" stroke="#1d1b18"/>
<path d="M263 362 l5 6 l11 -14" stroke="#2f6b4a" stroke-width="3" fill="none"/>
<rect x="294" y="350" width="22" height="22" fill="#b48a2c" stroke="#1d1b18"/>
<path d="M297 362 l5 6 l11 -14" stroke="#2f6b4a" stroke-width="3" fill="none"/>
<rect x="328" y="350" width="22" height="22" fill="#1d1b18" stroke="#1d1b18"/>
<path d="M331 362 l5 6 l11 -14" stroke="#2f6b4a" stroke-width="3" fill="none"/>
<text x="380" y="366" font-size="12">changed, defects 1 → 0</text>
<text x="20" y="388" font-size="14" font-weight="bold">notes on another maker's picture</text>
<text x="30" y="430">Landlords of the Root</text>
<rect x="260" y="414" width="22" height="22" fill="#ffffff" stroke="#1d1b18"/>
<path d="M263 426 l5 6 l11 -14" stroke="#2f6b4a" stroke-width="3" fill="none"/>
<rect x="294" y="414" width="22" height="22" fill="#b48a2c" stroke="#1d1b18"/>
<path d="M297 426 l5 6 l11 -14" stroke="#2f6b4a" stroke-width="3" fill="none"/>
<rect x="328" y="414" width="22" height="22" fill="#ffffff" stroke="#1d1b18"/>
<path d="M332 418 l14 14 M346 418 l-14 14" stroke="#a8321e" stroke-width="2.5"/>
<text x="380" y="430" font-size="12">changed, defects 1 → 0</text>
<text x="30" y="460">Held</text>
<rect x="260" y="444" width="22" height="22" fill="#ffffff" stroke="#1d1b18"/>
<path d="M264 448 l14 14 M278 448 l-14 14" stroke="#a8321e" stroke-width="2.5"/>
<rect x="294" y="444" width="22" height="22" fill="#b48a2c" stroke="#1d1b18"/>
<path d="M298 448 l14 14 M312 448 l-14 14" stroke="#a8321e" stroke-width="2.5"/>
<rect x="328" y="444" width="22" height="22" fill="#b48a2c" stroke="#1d1b18"/>
<path d="M331 456 l5 6 l11 -14" stroke="#2f6b4a" stroke-width="3" fill="none"/>
<text x="380" y="460" font-size="12">changed, defects 0 → 0</text>
<text x="30" y="490">Vacancies in the Root</text>
<rect x="260" y="474" width="22" height="22" fill="#ffffff" stroke="#1d1b18"/>
<path d="M264 478 l14 14 M278 478 l-14 14" stroke="#a8321e" stroke-width="2.5"/>
<rect x="294" y="474" width="22" height="22" fill="#ffffff" stroke="#1d1b18"/>
<path d="M298 478 l14 14 M312 478 l-14 14" stroke="#a8321e" stroke-width="2.5"/>
<rect x="328" y="474" width="22" height="22" fill="#ffffff" stroke="#1d1b18"/>
<path d="M332 478 l14 14 M346 478 l-14 14" stroke="#a8321e" stroke-width="2.5"/>
<text x="380" y="490" font-size="12">left as it was</text>
<text x="30" y="520">Vacancies</text>
<rect x="260" y="504" width="22" height="22" fill="#ffffff" stroke="#1d1b18"/>
<path d="M264 508 l14 14 M278 508 l-14 14" stroke="#a8321e" stroke-width="2.5"/>
<rect x="294" y="504" width="22" height="22" fill="#b48a2c" stroke="#1d1b18"/>
<path d="M297 516 l5 6 l11 -14" stroke="#2f6b4a" stroke-width="3" fill="none"/>
<rect x="328" y="504" width="22" height="22" fill="#ffffff" stroke="#1d1b18"/>
<path d="M332 508 l14 14 M346 508 l-14 14" stroke="#a8321e" stroke-width="2.5"/>
<text x="380" y="520" font-size="12">changed, defects 0 → 0</text>
<text x="20" y="546" font-size="12" fill="#6b665d">✓ acted on the note   ✗ declined: "not in my work". Of 8 foreign notes the coder found absent, makers acted on 1, by translating it.</text>
</svg>