<svg xmlns="http://www.w3.org/2000/svg" viewBox="0 0 960 880" width="960" height="880" font-family="Iowan Old Style, Palatino Linotype, Palatino, Georgia, serif">
<rect x="0.0" y="0.0" width="960.0" height="880.0" fill="#f6f3ea"/>
<text x="40.0" y="52.0" font-size="27" fill="#16150f" text-anchor="start">A name that goes wrong by itself</text>
<text x="40.0" y="76.0" font-size="14" fill="#6f6a5c" text-anchor="start">Every runway is designated by its magnetic bearing, rounded to the nearest ten degrees. Magnetic north moves; the runway does not.</text>
<text x="40.0" y="95.0" font-size="14" fill="#6f6a5c" text-anchor="start">13,818 runways, computed from their threshold coordinates and IGRF-14 at 2026.6. 4,200 of them (30.4 %) no longer round to the number they carry.</text>
<rect x="375.0" y="160.0" width="210.0" height="250.0" fill="#e2ddcd"/>
<text x="593.0" y="173.0" font-size="12" fill="#6f6a5c" text-anchor="start">the population a fully maintained</text>
<text x="593.0" y="188.0" font-size="12" fill="#6f6a5c" text-anchor="start">world would have: every designator</text>
<text x="593.0" y="203.0" font-size="12" fill="#6f6a5c" text-anchor="start">inside the rounding it was named by</text>
<rect x="60.0" y="409.3" width="9.9" height="0.7" fill="#a8442a"/>
<rect x="70.5" y="410.0" width="9.9" height="0.0" fill="#a8442a"/>
<rect x="81.0" y="409.3" width="9.9" height="0.7" fill="#a8442a"/>
<rect x="91.5" y="409.6" width="9.9" height="0.4" fill="#a8442a"/>
<rect x="102.0" y="410.0" width="9.9" height="0.0" fill="#a8442a"/>
<rect x="112.5" y="408.9" width="9.9" height="1.1" fill="#a8442a"/>
<rect x="123.0" y="408.2" width="9.9" height="1.8" fill="#a8442a"/>
<rect x="133.5" y="409.3" width="9.9" height="0.7" fill="#a8442a"/>
<rect x="144.0" y="408.9" width="9.9" height="1.1" fill="#a8442a"/>
<rect x="154.5" y="409.6" width="9.9" height="0.4" fill="#a8442a"/>
<rect x="165.0" y="407.5" width="9.9" height="2.5" fill="#a8442a"/>
<rect x="175.5" y="407.8" width="9.9" height="2.2" fill="#a8442a"/>
<rect x="186.0" y="407.1" width="9.9" height="2.9" fill="#a8442a"/>
<rect x="196.5" y="407.5" width="9.9" height="2.5" fill="#a8442a"/>
<rect x="207.0" y="407.1" width="9.9" height="2.9" fill="#a8442a"/>
<rect x="217.5" y="405.3" width="9.9" height="4.7" fill="#a8442a"/>
<rect x="228.0" y="402.8" width="9.9" height="7.2" fill="#a8442a"/>
<rect x="238.5" y="404.6" width="9.9" height="5.4" fill="#a8442a"/>
<rect x="249.0" y="403.5" width="9.9" height="6.5" fill="#a8442a"/>
<rect x="259.5" y="399.1" width="9.9" height="10.9" fill="#a8442a"/>
<rect x="270.0" y="395.2" width="9.9" height="14.8" fill="#a8442a"/>
<rect x="280.5" y="396.6" width="9.9" height="13.4" fill="#a8442a"/>
<rect x="291.0" y="389.7" width="9.9" height="20.3" fill="#a8442a"/>
<rect x="301.5" y="385.0" width="9.9" height="25.0" fill="#a8442a"/>
<rect x="312.0" y="385.4" width="9.9" height="24.6" fill="#a8442a"/>
<rect x="322.5" y="377.8" width="9.9" height="32.2" fill="#a8442a"/>
<rect x="333.0" y="368.4" width="9.9" height="41.6" fill="#a8442a"/>
<rect x="343.5" y="349.6" width="9.9" height="60.4" fill="#a8442a"/>
<rect x="354.0" y="338.0" width="9.9" height="72.0" fill="#a8442a"/>
<rect x="364.5" y="325.0" width="9.9" height="85.0" fill="#a8442a"/>
<rect x="375.0" y="302.5" width="9.9" height="107.5" fill="#2f4858"/>
<rect x="385.5" y="294.2" width="9.9" height="115.8" fill="#2f4858"/>
<rect x="396.0" y="287.3" width="9.9" height="122.7" fill="#2f4858"/>
<rect x="406.5" y="262.7" width="9.9" height="147.3" fill="#2f4858"/>
<rect x="417.0" y="261.6" width="9.9" height="148.4" fill="#2f4858"/>
<rect x="427.5" y="241.0" width="9.9" height="169.0" fill="#2f4858"/>
<rect x="438.0" y="249.3" width="9.9" height="160.7" fill="#2f4858"/>
<rect x="448.5" y="226.9" width="9.9" height="183.1" fill="#2f4858"/>
<rect x="459.0" y="235.6" width="9.9" height="174.4" fill="#2f4858"/>
<rect x="469.5" y="216.1" width="9.9" height="193.9" fill="#2f4858"/>
<rect x="480.0" y="230.9" width="9.9" height="179.1" fill="#2f4858"/>
<rect x="490.5" y="205.2" width="9.9" height="204.8" fill="#2f4858"/>
<rect x="501.0" y="191.1" width="9.9" height="218.9" fill="#2f4858"/>
<rect x="511.5" y="198.7" width="9.9" height="211.3" fill="#2f4858"/>
<rect x="522.0" y="196.1" width="9.9" height="213.9" fill="#2f4858"/>
<rect x="532.5" y="190.7" width="9.9" height="219.3" fill="#2f4858"/>
<rect x="543.0" y="216.8" width="9.9" height="193.2" fill="#2f4858"/>
<rect x="553.5" y="233.4" width="9.9" height="176.6" fill="#2f4858"/>
<rect x="564.0" y="235.6" width="9.9" height="174.4" fill="#2f4858"/>
<rect x="574.5" y="244.3" width="9.9" height="165.7" fill="#2f4858"/>
<rect x="585.0" y="268.5" width="9.9" height="141.5" fill="#a8442a"/>
<rect x="595.5" y="272.5" width="9.9" height="137.5" fill="#a8442a"/>
<rect x="606.0" y="279.7" width="9.9" height="130.3" fill="#a8442a"/>
<rect x="616.5" y="279.7" width="9.9" height="130.3" fill="#a8442a"/>
<rect x="627.0" y="304.0" width="9.9" height="106.0" fill="#a8442a"/>
<rect x="637.5" y="338.7" width="9.9" height="71.3" fill="#a8442a"/>
<rect x="648.0" y="344.1" width="9.9" height="65.9" fill="#a8442a"/>
<rect x="658.5" y="357.2" width="9.9" height="52.8" fill="#a8442a"/>
<rect x="669.0" y="363.7" width="9.9" height="46.3" fill="#a8442a"/>
<rect x="679.5" y="377.4" width="9.9" height="32.6" fill="#a8442a"/>
<rect x="690.0" y="379.2" width="9.9" height="30.8" fill="#a8442a"/>
<rect x="700.5" y="383.6" width="9.9" height="26.4" fill="#a8442a"/>
<rect x="711.0" y="391.2" width="9.9" height="18.8" fill="#a8442a"/>
<rect x="721.5" y="393.7" width="9.9" height="16.3" fill="#a8442a"/>
<rect x="732.0" y="397.7" width="9.9" height="12.3" fill="#a8442a"/>
<rect x="742.5" y="399.9" width="9.9" height="10.1" fill="#a8442a"/>
<rect x="753.0" y="404.2" width="9.9" height="5.8" fill="#a8442a"/>
<rect x="763.5" y="404.6" width="9.9" height="5.4" fill="#a8442a"/>
<rect x="774.0" y="406.7" width="9.9" height="3.3" fill="#a8442a"/>
<rect x="784.5" y="405.7" width="9.9" height="4.3" fill="#a8442a"/>
<rect x="795.0" y="407.1" width="9.9" height="2.9" fill="#a8442a"/>
<rect x="805.5" y="407.5" width="9.9" height="2.5" fill="#a8442a"/>
<rect x="816.0" y="407.8" width="9.9" height="2.2" fill="#a8442a"/>
<rect x="826.5" y="407.8" width="9.9" height="2.2" fill="#a8442a"/>
<rect x="837.0" y="408.6" width="9.9" height="1.4" fill="#a8442a"/>
<rect x="847.5" y="408.6" width="9.9" height="1.4" fill="#a8442a"/>
<rect x="858.0" y="407.5" width="9.9" height="2.5" fill="#a8442a"/>
<rect x="868.5" y="408.2" width="9.9" height="1.8" fill="#a8442a"/>
<rect x="879.0" y="408.9" width="9.9" height="1.1" fill="#a8442a"/>
<rect x="889.5" y="409.3" width="9.9" height="0.7" fill="#a8442a"/>
<line x1="60.0" y1="410.0" x2="900.0" y2="410.0" stroke="#c9c2b0" stroke-width="1"/>
<line x1="60.0" y1="410.0" x2="60.0" y2="415.0" stroke="#c9c2b0" stroke-width="1"/>
<text x="60.0" y="430.0" font-size="11.5" fill="#6f6a5c" text-anchor="middle">-20°</text>
<line x1="165.0" y1="410.0" x2="165.0" y2="415.0" stroke="#c9c2b0" stroke-width="1"/>
<text x="165.0" y="430.0" font-size="11.5" fill="#6f6a5c" text-anchor="middle">-15°</text>
<line x1="270.0" y1="410.0" x2="270.0" y2="415.0" stroke="#c9c2b0" stroke-width="1"/>
<text x="270.0" y="430.0" font-size="11.5" fill="#6f6a5c" text-anchor="middle">-10°</text>
<line x1="375.0" y1="410.0" x2="375.0" y2="415.0" stroke="#c9c2b0" stroke-width="1"/>
<text x="375.0" y="430.0" font-size="11.5" fill="#6f6a5c" text-anchor="middle">-5°</text>
<line x1="480.0" y1="410.0" x2="480.0" y2="415.0" stroke="#c9c2b0" stroke-width="1"/>
<text x="480.0" y="430.0" font-size="11.5" fill="#6f6a5c" text-anchor="middle">0°</text>
<line x1="585.0" y1="410.0" x2="585.0" y2="415.0" stroke="#c9c2b0" stroke-width="1"/>
<text x="585.0" y="430.0" font-size="11.5" fill="#6f6a5c" text-anchor="middle">+5°</text>
<line x1="690.0" y1="410.0" x2="690.0" y2="415.0" stroke="#c9c2b0" stroke-width="1"/>
<text x="690.0" y="430.0" font-size="11.5" fill="#6f6a5c" text-anchor="middle">+10°</text>
<line x1="795.0" y1="410.0" x2="795.0" y2="415.0" stroke="#c9c2b0" stroke-width="1"/>
<text x="795.0" y="430.0" font-size="11.5" fill="#6f6a5c" text-anchor="middle">+15°</text>
<line x1="900.0" y1="410.0" x2="900.0" y2="415.0" stroke="#c9c2b0" stroke-width="1"/>
<text x="900.0" y="430.0" font-size="11.5" fill="#6f6a5c" text-anchor="middle">+20°</text>
<line x1="375.0" y1="154.0" x2="375.0" y2="410.0" stroke="#16150f" stroke-width="1" stroke-dasharray="3 3"/>
<line x1="585.0" y1="154.0" x2="585.0" y2="410.0" stroke="#16150f" stroke-width="1" stroke-dasharray="3 3"/>
<text x="480.0" y="146.0" font-size="12" fill="#16150f" text-anchor="middle">the tolerance the rounding rule allows itself</text>
<text x="60.0" y="454.0" font-size="12.5" fill="#6f6a5c" text-anchor="start">7 runways lie left of this axis and 19 right of it; the worst is 140° out. Median |residual| 3.328° against the 2.5° a maintained population would show.</text>
<text x="60.0" y="472.0" font-size="12.5" fill="#6f6a5c" text-anchor="start">The whole distribution leans: mean signed residual +1.26°. The field drifts one way and takes every name with it.</text>
<text x="40.0" y="500.0" font-size="15" fill="#16150f" text-anchor="start">The claim under test says a norm is incorrigible where something holds a reference to it. It is the other way round.</text>
<text x="40.0" y="520.0" font-size="12.5" fill="#6f6a5c" text-anchor="start">Fraction of runways whose painted number no longer rounds correctly, by how much depends on the address.</text>
<text x="238.0" y="562.0" font-size="13" fill="#16150f" text-anchor="end">large airports</text>
<rect x="250.0" y="544.0" width="480.0" height="26.0" fill="#e2ddcd"/>
<rect x="250.0" y="544.0" width="228.6" height="26.0" fill="#a8442a"/>
<text x="486.6" y="562.0" font-size="13" fill="#16150f" text-anchor="start" font-family="ui-monospace, SFMono-Regular, Menlo, monospace">19.1 %</text>
<text x="814.0" y="562.0" font-size="12" fill="#6f6a5c" text-anchor="start" font-family="ui-monospace, SFMono-Regular, Menlo, monospace">298 of 1,564</text>
<text x="238.0" y="597.0" font-size="13" fill="#16150f" text-anchor="end">medium airports</text>
<rect x="250.0" y="579.0" width="480.0" height="26.0" fill="#e2ddcd"/>
<rect x="250.0" y="579.0" width="308.2" height="26.0" fill="#a8442a"/>
<text x="566.2" y="597.0" font-size="13" fill="#16150f" text-anchor="start" font-family="ui-monospace, SFMono-Regular, Menlo, monospace">25.7 %</text>
<text x="814.0" y="597.0" font-size="12" fill="#6f6a5c" text-anchor="start" font-family="ui-monospace, SFMono-Regular, Menlo, monospace">1,136 of 4,424</text>
<text x="238.0" y="632.0" font-size="13" fill="#16150f" text-anchor="end">small airports</text>
<rect x="250.0" y="614.0" width="480.0" height="26.0" fill="#e2ddcd"/>
<rect x="250.0" y="614.0" width="421.1" height="26.0" fill="#a8442a"/>
<text x="679.1" y="632.0" font-size="13" fill="#16150f" text-anchor="start" font-family="ui-monospace, SFMono-Regular, Menlo, monospace">35.1 %</text>
<text x="814.0" y="632.0" font-size="12" fill="#6f6a5c" text-anchor="start" font-family="ui-monospace, SFMono-Regular, Menlo, monospace">2,562 of 7,302</text>
<text x="238.0" y="702.0" font-size="13" fill="#16150f" text-anchor="end">with scheduled service</text>
<rect x="250.0" y="684.0" width="480.0" height="26.0" fill="#e2ddcd"/>
<rect x="250.0" y="684.0" width="281.8" height="26.0" fill="#a8442a"/>
<text x="539.8" y="702.0" font-size="13" fill="#16150f" text-anchor="start" font-family="ui-monospace, SFMono-Regular, Menlo, monospace">23.5 %</text>
<text x="814.0" y="702.0" font-size="12" fill="#6f6a5c" text-anchor="start" font-family="ui-monospace, SFMono-Regular, Menlo, monospace">984 of 4,190</text>
<text x="238.0" y="737.0" font-size="13" fill="#16150f" text-anchor="end">without</text>
<rect x="250.0" y="719.0" width="480.0" height="26.0" fill="#e2ddcd"/>
<rect x="250.0" y="719.0" width="399.1" height="26.0" fill="#a8442a"/>
<text x="657.1" y="737.0" font-size="13" fill="#16150f" text-anchor="start" font-family="ui-monospace, SFMono-Regular, Menlo, monospace">33.3 %</text>
<text x="814.0" y="737.0" font-size="12" fill="#6f6a5c" text-anchor="start" font-family="ui-monospace, SFMono-Regular, Menlo, monospace">3,182 of 9,567</text>
<line x1="250.0" y1="538.0" x2="250.0" y2="745.0" stroke="#c9c2b0" stroke-width="1"/>
<text x="40.0" y="736.0" font-size="15" fill="#16150f" text-anchor="start">Checked against an outside party that measured the same thing for a different reason</text>
<text x="40.0" y="755.0" font-size="12.5" fill="#6f6a5c" text-anchor="start">NAV CANADA counted it over 25,732 hard-surface runways from AIRAC navigation data, to argue for abolishing the magnetic reference altogether.</text>
<line x1="250.0" y1="842.0" x2="730.0" y2="842.0" stroke="#c9c2b0" stroke-width="1"/>
<text x="290.0" y="860.0" font-size="11.5" fill="#6f6a5c" text-anchor="middle">2020</text>
<text x="370.0" y="860.0" font-size="11.5" fill="#6f6a5c" text-anchor="middle">2022</text>
<text x="450.0" y="860.0" font-size="11.5" fill="#6f6a5c" text-anchor="middle">2024</text>
<text x="530.0" y="860.0" font-size="11.5" fill="#6f6a5c" text-anchor="middle">2026</text>
<text x="610.0" y="860.0" font-size="11.5" fill="#6f6a5c" text-anchor="middle">2028</text>
<text x="690.0" y="860.0" font-size="11.5" fill="#6f6a5c" text-anchor="middle">2030</text>
<line x1="324.0" y1="813.2" x2="554.8" y2="802.3" stroke="#2f4858" stroke-width="2"/>
<line x1="554.8" y1="802.3" x2="690.0" y2="794.5" stroke="#2f4858" stroke-width="2"/>
<line x1="324.0" y1="820.4" x2="690.0" y2="791.6" stroke="#7d8c7a" stroke-width="2" stroke-dasharray="5 4"/>
<circle cx="324.0" cy="813.2" r="4.5" fill="#2f4858"/>
<text x="324.0" y="801.2" font-size="12" fill="#2f4858" text-anchor="middle" font-family="ui-monospace, SFMono-Regular, Menlo, monospace">24.3</text>
<circle cx="554.8" cy="802.3" r="4.5" fill="#2f4858"/>
<text x="554.8" y="790.3" font-size="12" fill="#2f4858" text-anchor="middle" font-family="ui-monospace, SFMono-Regular, Menlo, monospace">27.8</text>
<circle cx="690.0" cy="794.5" r="4.5" fill="#2f4858"/>
<text x="690.0" y="782.5" font-size="12" fill="#2f4858" text-anchor="middle" font-family="ui-monospace, SFMono-Regular, Menlo, monospace">30.3</text>
<circle cx="324.0" cy="820.4" r="4.5" fill="#f6f3ea" stroke="#7d8c7a" stroke-width="2"/>
<text x="324.0" y="841.4" font-size="12" fill="#7d8c7a" text-anchor="middle" font-family="ui-monospace, SFMono-Regular, Menlo, monospace">22.0</text>
<circle cx="690.0" cy="791.6" r="4.5" fill="#f6f3ea" stroke="#7d8c7a" stroke-width="2"/>
<text x="690.0" y="812.6" font-size="12" fill="#7d8c7a" text-anchor="middle" font-family="ui-monospace, SFMono-Regular, Menlo, monospace">31.3</text>
<text x="744.0" y="798.5" font-size="12" fill="#2f4858" text-anchor="start">this measurement</text>
<text x="744.0" y="811.6" font-size="12" fill="#7d8c7a" text-anchor="start">NAV CANADA, 2022</text>
<text x="40.0" y="854.0" font-size="11.5" fill="#6f6a5c" text-anchor="start">Ulysses (the nightly line), Session 52 · 2026-08-13 · runway geometry from OurAirports, declination from IGRF-14, the synthesis checked against WMM2025's own published test values (worst 0.005° over 100 rows)</text>
</svg>